<?xml version="1.0" encoding="utf-8"?>
<!-- Generator: Adobe Illustrator 25.2.0, SVG Export Plug-In . SVG Version: 6.00 Build 0)  -->
<svg version="1.1" xmlns="http://www.w3.org/2000/svg" xmlns:xlink="http://www.w3.org/1999/xlink" x="0px" y="0px"
	 viewBox="0 0 500 500" style="enable-background:new 0 0 500 500;" xml:space="preserve">
<style type="text/css">
	.st0{fill:#EBEBEB;}
	.st1{fill:#F0F0F0;}
	.st2{fill:#E0E0E0;}
	.st3{fill:#E9E9E9;}
	.st4{fill:#F4F4F4;}
	.st5{fill:#FFFFFF;}
	.st6{fill:#F0F0F0;stroke:#E0E0E0;stroke-width:2;stroke-linecap:round;stroke-linejoin:round;stroke-miterlimit:10;}
	.st7{display:none;}
	.st8{display:inline;}
	.st9{fill:#407BFF;}
	.st10{opacity:0.9;fill:#FFFFFF;}
	.st11{fill:#F5F5F5;}
	.st12{fill:#667490;}
	.st13{opacity:0.6;fill:#FFFFFF;enable-background:new    ;}
	.st14{opacity:0.3;fill:#FFFFFF;enable-background:new    ;}
	.st15{opacity:0.1;fill:#FFFFFF;enable-background:new    ;}
	.st16{opacity:0.2;fill:#FFFFFF;enable-background:new    ;}
	.st17{fill:#1C1E20;}
	.st18{opacity:0.3;enable-background:new    ;}
	.st19{fill:#263238;}
	.st20{fill:none;stroke:#263238;stroke-width:0.5;stroke-linecap:round;stroke-linejoin:round;stroke-miterlimit:10;}
	.st21{fill:#E4897B;}
	.st22{opacity:0.2;enable-background:new    ;}
	.st23{fill:#DE5753;}
	.st24{fill:none;stroke:#263238;stroke-width:0.7247;stroke-linecap:round;stroke-linejoin:round;stroke-miterlimit:10;}
	.st25{opacity:0.2;fill:#FFFFFF;}
	.st26{opacity:0.5;fill:#FFFFFF;enable-background:new    ;}
	.st27{opacity:0.7;fill:#FFFFFF;enable-background:new    ;}
	.st28{opacity:0.6;enable-background:new    ;}
	.st29{fill:none;stroke:#FFFFFF;stroke-width:0.5;stroke-linecap:round;stroke-linejoin:round;stroke-miterlimit:10;}
	.st30{enable-background:new    ;}
	.st31{opacity:0.4;enable-background:new    ;}
	.st32{opacity:0.4;fill:#FFFFFF;enable-background:new    ;}
</style>
<g id="Background_Complete">
	<g>
		<rect y="382.4" class="st0" width="500" height="0.25"/>
		<rect x="416.78" y="398.49" class="st0" width="33.12" height="0.25"/>
		<rect x="322.53" y="401.21" class="st0" width="8.69" height="0.25"/>
		<rect x="396.59" y="389.21" class="st0" width="19.19" height="0.25"/>
		<rect x="52.46" y="390.89" class="st0" width="43.19" height="0.25"/>
		<rect x="104.56" y="390.89" class="st0" width="6.33" height="0.25"/>
		<rect x="131.47" y="395.11" class="st0" width="93.68" height="0.25"/>
		<path class="st0" d="M237.01,337.8H43.92c-3.15,0-5.71-2.56-5.71-5.71V60.66c0-3.15,2.56-5.71,5.71-5.71h193.1
			c3.15,0,5.71,2.56,5.71,5.71v271.43C242.72,335.24,240.16,337.8,237.01,337.8z M43.92,55.2c-3.01,0-5.46,2.45-5.46,5.46v271.43
			c0,3.01,2.45,5.46,5.46,5.46h193.1c3.01,0,5.46-2.45,5.46-5.46V60.66c0-3.01-2.45-5.46-5.46-5.46H43.92z"/>
		<path class="st0" d="M453.31,337.8h-193.1c-3.15,0-5.71-2.56-5.71-5.71V60.66c0-3.15,2.56-5.71,5.71-5.71h193.1
			c3.15,0,5.71,2.56,5.71,5.71v271.43C459.02,335.24,456.46,337.8,453.31,337.8z M260.21,55.2c-3.01,0-5.46,2.45-5.46,5.46v271.43
			c0,3.01,2.45,5.46,5.46,5.46h193.1c3.01,0,5.46-2.45,5.46-5.46V60.66c0-3.01-2.45-5.46-5.46-5.46H260.21z"/>
	</g>
	<g>
		<g>
			<rect x="78.39" y="178.59" class="st1" width="160.75" height="203.56"/>
			<g>
				<rect x="84.07" y="186.01" class="st2" width="149.39" height="43.53"/>
				<rect x="84.07" y="193.06" class="st0" width="8.49" height="36.48"/>
				<rect x="125.1" y="193.06" class="st0" width="8.49" height="36.48"/>
				
					<rect x="174.85" y="192.6" transform="matrix(0.9855 -0.1698 0.1698 0.9855 -33.2082 33.4799)" class="st0" width="8.49" height="36.48"/>
				<rect x="94.58" y="197.87" class="st0" width="8.49" height="31.67"/>
				<rect x="114.09" y="197.87" class="st0" width="8.49" height="31.67"/>
				<rect x="163.32" y="197.87" class="st0" width="8.49" height="31.67"/>
				
					<rect x="139.79" y="197.32" transform="matrix(0.9762 -0.2169 0.2169 0.9762 -42.8067 36.3151)" class="st0" width="8.49" height="31.67"/>
				<rect x="106.17" y="191.25" class="st0" width="4.24" height="38.29"/>
				<rect x="156.64" y="191.25" class="st0" width="4.24" height="38.29"/>
			</g>
			<g>
				
					<rect x="84.07" y="236.43" transform="matrix(-1 -1.224647e-16 1.224647e-16 -1 317.5254 516.3961)" class="st2" width="149.39" height="43.53"/>
				
					<rect x="224.97" y="243.48" transform="matrix(-1 -1.224647e-16 1.224647e-16 -1 458.4264 523.4428)" class="st0" width="8.49" height="36.48"/>
				
					<rect x="183.94" y="243.48" transform="matrix(-1 -1.224647e-16 1.224647e-16 -1 376.3588 523.4428)" class="st0" width="8.49" height="36.48"/>
				
					<rect x="134.19" y="243.03" transform="matrix(-0.9855 -0.1698 0.1698 -0.9855 230.4903 542.247)" class="st0" width="8.49" height="36.48"/>
				
					<rect x="214.46" y="248.29" transform="matrix(-1 -1.224647e-16 1.224647e-16 -1 437.3963 528.2503)" class="st0" width="8.49" height="31.67"/>
				
					<rect x="194.95" y="248.29" transform="matrix(-1 -1.224647e-16 1.224647e-16 -1 398.3853 528.2503)" class="st0" width="8.49" height="31.67"/>
				
					<rect x="145.72" y="248.29" transform="matrix(-1 -1.224647e-16 1.224647e-16 -1 299.9175 528.2503)" class="st0" width="8.49" height="31.67"/>
				
					<rect x="169.25" y="247.74" transform="matrix(-0.9762 -0.2169 0.2169 -0.9762 285.6949 558.5196)" class="st0" width="8.49" height="31.67"/>
				
					<rect x="207.12" y="241.67" transform="matrix(-1 -1.224647e-16 1.224647e-16 -1 418.477 521.6316)" class="st0" width="4.24" height="38.29"/>
				
					<rect x="156.64" y="241.67" transform="matrix(-1 -1.224647e-16 1.224647e-16 -1 317.5253 521.6316)" class="st0" width="4.24" height="38.29"/>
				<rect x="84.07" y="243.48" class="st0" width="8.49" height="36.48"/>
				<rect x="94.58" y="248.29" class="st0" width="8.49" height="31.67"/>
				<rect x="114.09" y="248.29" class="st0" width="8.49" height="31.67"/>
				<rect x="106.17" y="241.67" class="st0" width="4.24" height="38.29"/>
			</g>
			<g>
				<rect x="84.07" y="286.85" class="st2" width="149.39" height="43.53"/>
				<g>
					<rect x="169.81" y="293.9" class="st0" width="8.49" height="36.48"/>
					
						<rect x="219.56" y="293.45" transform="matrix(0.9855 -0.1698 0.1698 0.9855 -49.6856 42.5384)" class="st0" width="8.49" height="36.48"/>
					<rect x="139.29" y="298.71" class="st0" width="8.49" height="31.67"/>
					<rect x="158.8" y="298.71" class="st0" width="8.49" height="31.67"/>
					<rect x="208.03" y="298.71" class="st0" width="8.49" height="31.67"/>
					
						<rect x="184.49" y="298.17" transform="matrix(0.9762 -0.2169 0.2169 0.9762 -63.6159 48.4142)" class="st0" width="8.49" height="31.67"/>
					<rect x="150.87" y="292.09" class="st0" width="4.24" height="38.29"/>
					<rect x="201.35" y="292.09" class="st0" width="4.24" height="38.29"/>
					
						<rect x="121.92" y="293.45" transform="matrix(0.9855 -0.1698 0.1698 0.9855 -51.104 25.9568)" class="st0" width="8.49" height="36.48"/>
					<rect x="110.4" y="298.71" class="st0" width="8.49" height="31.67"/>
					
						<rect x="86.86" y="298.17" transform="matrix(0.9762 -0.2169 0.2169 0.9762 -65.9402 27.2374)" class="st0" width="8.49" height="31.67"/>
					<rect x="103.72" y="292.09" class="st0" width="4.24" height="38.29"/>
				</g>
			</g>
		</g>
		<g>
			<g>
				<rect x="282.2" y="98.98" class="st3" width="124.62" height="124.62"/>
				<rect x="287.33" y="103.92" class="st4" width="115" height="115"/>
				<polygon class="st5" points="316.44,103.92 287.33,212.94 287.33,153.92 300.65,103.92 				"/>
				<polygon class="st5" points="329.45,103.92 298.75,218.92 292.96,218.92 323.66,103.92 				"/>
				<polygon class="st5" points="402.33,135.28 402.33,194.31 395.81,218.92 380.02,218.92 				"/>
				<rect x="342.51" y="98.98" class="st3" width="4" height="124.62"/>
			</g>
			<g>
				<path class="st2" d="M379.85,95.03c0,0,2.73,40.97,18.73,60.98c0,0-12.58,51.91-12.58,71.91h21.33v-133L379.85,95.03z"/>
				<path class="st2" d="M308.57,95.03c0,0-2.85,40.97-18.85,60.98c0,0,12.46,51.91,12.46,71.91h-20.85v-133L308.57,95.03z"/>
			</g>
		</g>
		<g>
			<circle class="st2" cx="158.76" cy="126.52" r="23.55"/>
			<circle class="st1" cx="158.76" cy="126.52" r="20.03"/>
			<polyline class="st6" points="157.82,112.78 157.82,126.78 148.54,121.53 			"/>
		</g>
	</g>
</g>
<g id="Background_Simple" class="st7">
	<g class="st8">
		<path class="st9" d="M327.14,85.29c22.52,18.95,1.94,46.55-16,59.26c-13.96,9.89-30.07,17.9-39.58,32.12
			c-13.18,19.73-8.69,44.73,5.73,62.35c12.84,15.7,31.86,26.63,50.99,32.7c20.22,6.41,44.36,5.97,57.56,25.31
			c12.91,18.92,7.26,46.26-8.26,63.11c-15.51,16.85-38.53,24.83-61.17,28.32c-27.42,4.22-56.26,6.14-83.97,6.2
			c-40.39,0.08-82.53-7.92-113.16-36.12c-15.91-14.64-26.47-34.44-32.48-55.21c-11.53-39.88-6.61-83.86,11.46-121.24
			c36.43-75.38,123.91-124.86,207.29-105.97c6.59,1.49,13.21,3.44,18.87,7.14C325.37,83.89,326.28,84.57,327.14,85.29z"/>
		<path class="st10" d="M327.14,85.29c22.52,18.95,1.94,46.55-16,59.26c-13.96,9.89-30.07,17.9-39.58,32.12
			c-13.18,19.73-8.69,44.73,5.73,62.35c12.84,15.7,31.86,26.63,50.99,32.7c20.22,6.41,44.36,5.97,57.56,25.31
			c12.91,18.92,7.26,46.26-8.26,63.11c-15.51,16.85-38.53,24.83-61.17,28.32c-27.42,4.22-56.26,6.14-83.97,6.2
			c-40.39,0.08-82.53-7.92-113.16-36.12c-15.91-14.64-26.47-34.44-32.48-55.21c-11.53-39.88-6.61-83.86,11.46-121.24
			c36.43-75.38,123.91-124.86,207.29-105.97c6.59,1.49,13.21,3.44,18.87,7.14C325.37,83.89,326.28,84.57,327.14,85.29z"/>
	</g>
</g>
<g id="Shadow_1_">
	<ellipse id="_x3C_Path_x3E__359_" class="st11" cx="250" cy="416.24" rx="193.89" ry="11.32"/>
</g>
<g id="Table">
	<g>
		<polygon class="st12" points="312.11,331.16 297.1,331.16 296.1,299.76 313.11,299.76 		"/>
		<polygon class="st13" points="312.11,331.16 297.1,331.16 296.1,299.76 313.11,299.76 		"/>
		<g>
			
				<rect x="325.07" y="308.42" transform="matrix(-1 -1.224647e-16 1.224647e-16 -1 668.5072 640.1379)" class="st12" width="18.37" height="23.3"/>
			
				<rect x="325.07" y="308.42" transform="matrix(-1 -1.224647e-16 1.224647e-16 -1 668.5072 640.1379)" class="st14" width="18.37" height="23.3"/>
			
				<rect x="324.13" y="305.37" transform="matrix(-1 -1.224647e-16 1.224647e-16 -1 668.5072 617.3507)" width="20.25" height="6.61"/>
			
				<rect x="324.13" y="305.37" transform="matrix(-1 -1.224647e-16 1.224647e-16 -1 668.5072 617.3507)" class="st15" width="20.25" height="6.61"/>
		</g>
		<g>
			<g>
				<path class="st12" d="M374.95,304.94c0,0-4.5-5.35-7.38-2.86c-2.88,2.5-1.42,7.79,1.9,7.96c3.32,0.17,5.48-1.67,5.48-1.67
					V304.94z"/>
				<path class="st16" d="M374.95,304.94c0,0-4.5-5.35-7.38-2.86c-2.88,2.5-1.42,7.79,1.9,7.96c3.32,0.17,5.48-1.67,5.48-1.67
					V304.94z"/>
				<path class="st12" d="M393.29,291.37c0,0,3.78-3.96,6.12-3.29c2.34,0.67,2.09,10.12-5.16,6.3L393.29,291.37z"/>
				<path class="st14" d="M393.29,291.37c0,0,3.78-3.96,6.12-3.29c2.34,0.67,2.09,10.12-5.16,6.3L393.29,291.37z"/>
				<path class="st12" d="M379.8,320.89c0,0-12.41-16.98-2.34-20.42c10.07-3.44,11.87,13.66,8.99,18.42
					C383.58,323.65,379.8,320.89,379.8,320.89z"/>
				<path class="st12" d="M385.56,286.12c0,0,7.7-17.88-3.71-18.42c-11.4-0.54-12.65,17.72,0.48,20.37L385.56,286.12z"/>
				<path class="st14" d="M379.8,320.89c0,0-12.41-16.98-2.34-20.42c10.07-3.44,11.87,13.66,8.99,18.42
					C383.58,323.65,379.8,320.89,379.8,320.89z"/>
				<path class="st14" d="M385.56,286.12c0,0,7.7-17.88-3.71-18.42c-11.4-0.54-12.65,17.72,0.48,20.37L385.56,286.12z"/>
				<path class="st12" d="M382.83,300.76c0,0-3.74-15.78,3.45-17.04c7.2-1.26,14.3,13-0.59,20.17
					C385.69,303.89,383.14,302.3,382.83,300.76z"/>
				<path class="st16" d="M382.83,300.76c0,0-3.74-15.78,3.45-17.04c7.2-1.26,14.3,13-0.59,20.17
					C385.69,303.89,383.14,302.3,382.83,300.76z"/>
			</g>
			<g>
				<polygon class="st17" points="370.87,318.48 391.71,318.48 389.97,331.81 372.61,331.81 				"/>
			</g>
			<g>
				<path class="st12" d="M381.71,284.85c-2.27-1.48-4.07-3.71-5.12-6.28c-0.51-1.29-0.75-2.7-0.71-4.09c0-1.4,0.5-2.74,1.1-3.94
					c-0.06,0.69-0.31,1.31-0.29,1.98l-0.07,0.98l0.04,0.97c0.12,1.28,0.37,2.55,0.87,3.74c0.47,1.2,1.09,2.35,1.8,3.45
					C380.04,282.75,380.82,283.83,381.71,284.85z"/>
			</g>
			<g>
				<path class="st12" d="M378.97,269.51c1.31,0.16,2.58,0.76,3.62,1.64c1.06,0.87,1.86,2.03,2.4,3.29
					c0.53,1.27,0.73,2.63,0.77,3.97c0,0.67-0.07,1.33-0.13,1.99c-0.15,0.65-0.26,1.3-0.44,1.93c-0.05-0.66-0.03-1.31-0.05-1.96
					c-0.06-0.64-0.09-1.29-0.16-1.92c-0.13-0.62-0.15-1.26-0.35-1.86c-0.09-0.3-0.14-0.61-0.24-0.91l-0.33-0.87
					C383.13,272.53,381.37,270.6,378.97,269.51z"/>
			</g>
			<g>
				<path class="st12" d="M387.7,284.85c1.7,0.53,3.16,1.89,3.93,3.56c0.39,0.83,0.65,1.74,0.75,2.65c0.07,0.45,0.04,0.95,0.02,1.42
					c-0.08,0.46-0.12,0.94-0.27,1.38c-0.53,1.8-1.56,3.34-2.73,4.69c-1.16,1.36-2.52,2.55-3.99,3.54c1.22-1.28,2.35-2.62,3.38-4.02
					c1.01-1.4,1.92-2.88,2.38-4.48c0.15-0.39,0.18-0.8,0.26-1.2c0.02-0.41,0.05-0.8,0.01-1.22c-0.04-0.84-0.26-1.66-0.53-2.45
					C390.33,287.16,389.23,285.73,387.7,284.85z"/>
			</g>
			<g>
				<path class="st12" d="M385.56,286.12c0.51,1.14,0.83,2.35,0.96,3.61c0.11,1.24,0.14,2.6-0.59,3.85
					c-0.67,0.94-0.9,2.05-1.06,3.24c-0.15,1.18-0.18,2.4-0.21,3.64c-0.38-1.18-0.57-2.43-0.57-3.69c0-0.63,0.07-1.27,0.2-1.91
					c0.08-0.32,0.17-0.64,0.32-0.95c0.1-0.3,0.36-0.65,0.47-0.87c0.28-0.42,0.44-0.97,0.52-1.53c0.1-0.56,0.13-1.15,0.14-1.75
					C385.76,288.57,385.66,287.36,385.56,286.12z"/>
			</g>
			<g>
				<path class="st12" d="M380.5,302.09c0.33,0.07,0.6,0.31,0.82,0.56c0.23,0.25,0.42,0.52,0.6,0.8c0.34,0.57,0.62,1.17,0.85,1.79
					c0.47,1.23,0.8,2.49,1.08,3.76c0.26,1.27,0.46,2.56,0.57,3.85c0.12,1.29,0.17,2.6,0.04,3.9l-0.81-3.78l-0.78-3.76
					c-0.25-1.25-0.53-2.49-0.84-3.73c-0.16-0.61-0.33-1.22-0.55-1.81C381.26,303.08,381.03,302.46,380.5,302.09z"/>
			</g>
			<g>
				<path class="st12" d="M376.97,302.63c-0.48,2.37-0.6,4.73-0.12,6.99c0.22,1.13,0.58,2.23,1.11,3.27
					c0.48,1.07,1.17,2.02,1.85,3.04c-0.97-0.72-1.88-1.59-2.53-2.66c-0.7-1.03-1.15-2.23-1.41-3.45c-0.24-1.23-0.29-2.49-0.09-3.72
					C375.96,304.88,376.34,303.68,376.97,302.63z"/>
			</g>
			<g>
				<path class="st12" d="M396.22,293.3c0.68-0.36,1.23-0.55,1.76-0.78c0.27-0.1,0.51-0.24,0.78-0.36c0.27-0.13,0.52-0.31,0.87-0.5
					c0.05,0.79-0.56,1.49-1.25,1.78c-0.36,0.14-0.73,0.22-1.1,0.2C396.92,293.61,396.55,293.52,396.22,293.3z"/>
			</g>
			<g>
				<path class="st12" d="M395.45,290.69c0.1-0.39,0.33-0.69,0.6-0.95c0.27-0.26,0.61-0.46,0.99-0.57c0.38-0.1,0.82-0.12,1.21,0.03
					c0.4,0.14,0.7,0.45,0.84,0.82c-0.4-0.04-0.7-0.08-0.98-0.05c-0.28,0.04-0.53,0.08-0.8,0.16
					C396.77,290.27,396.21,290.52,395.45,290.69z"/>
			</g>
			<g>
				<path class="st12" d="M372.89,305.74c-0.91-0.49-1.63-1.05-2.39-1.47c-0.37-0.22-0.74-0.39-1.13-0.47
					c-0.38-0.08-0.8-0.06-1.31,0.09c0.23-0.46,0.75-0.82,1.33-0.87c0.58-0.07,1.14,0.13,1.59,0.38c0.46,0.27,0.85,0.61,1.17,1
					C372.49,304.8,372.75,305.24,372.89,305.74z"/>
			</g>
			<g>
				<path class="st12" d="M372.89,308.37c-1.07,0.56-2.27,0.7-3.47,0.53c-0.59-0.1-1.21-0.32-1.72-0.74
					c-0.51-0.41-0.82-1.09-0.72-1.69c0.33,0.52,0.71,0.83,1.16,1.04c0.45,0.19,0.93,0.34,1.46,0.41
					C370.63,308.1,371.72,308.15,372.89,308.37z"/>
			</g>
		</g>
		<g>
			<polygon class="st17" points="418.76,331.16 418.76,414.16 412.76,414.16 412.76,343.16 317.76,343.16 317.76,414.16 
				310.76,414.16 310.76,331.16 			"/>
			<polygon class="st18" points="418.76,331.16 418.76,414.16 412.76,414.16 412.76,343.16 317.76,343.16 317.76,414.16 
				310.76,414.16 310.76,331.16 			"/>
			<polygon class="st13" points="418.76,331.16 418.76,414.16 412.76,414.16 412.76,343.16 317.76,343.16 317.76,414.16 
				310.76,414.16 310.76,331.16 			"/>
			<polygon class="st17" points="363.76,331.16 363.76,414.16 357.76,414.16 357.76,343.16 262.76,343.16 262.76,414.16 
				255.76,414.16 255.76,331.16 			"/>
			<polygon class="st13" points="363.76,331.16 363.76,414.16 357.76,414.16 357.76,343.16 262.76,343.16 262.76,414.16 
				255.76,414.16 255.76,331.16 			"/>
		</g>
		<g>
			
				<rect x="325.38" y="390.9" transform="matrix(-1 -1.224647e-16 1.224647e-16 -1 672.1281 807.1432)" class="st12" width="21.38" height="25.34"/>
			
				<rect x="325.38" y="390.9" transform="matrix(-1 -1.224647e-16 1.224647e-16 -1 672.1281 807.1432)" class="st16" width="21.38" height="25.34"/>
			
				<rect x="324.44" y="388.24" transform="matrix(-1 -1.224647e-16 1.224647e-16 -1 672.128 782.2499)" width="23.25" height="5.77"/>
		</g>
		<g>
			
				<rect x="299.26" y="325.74" transform="matrix(0.8872 -0.4614 0.4614 0.8872 -117.137 175.8208)" class="st5" width="3.41" height="3.41"/>
			
				<rect x="304.67" y="325.74" transform="matrix(0.9981 -0.0611 0.0611 0.9981 -19.4401 19.3373)" class="st5" width="3.41" height="3.41"/>
			
				<rect x="302.23" y="321.41" transform="matrix(0.9746 0.2241 -0.2241 0.9746 80.1488 -59.8992)" class="st5" width="3.41" height="3.41"/>
			
				<rect x="307.59" y="321.41" transform="matrix(0.9746 0.2241 -0.2241 0.9746 80.2827 -61.099)" class="st5" width="3.41" height="3.41"/>
			
				<rect x="304.99" y="317.02" transform="matrix(0.9651 -0.2617 0.2617 0.9651 -72.7243 91.3751)" class="st5" width="3.41" height="3.41"/>
			
				<rect x="299.26" y="317.51" transform="matrix(0.8337 -0.5523 0.5523 0.8337 -126.2352 219.3225)" class="st5" width="3.41" height="3.41"/>
			
				<rect x="301.51" y="313.29" transform="matrix(0.6486 -0.7611 0.7611 0.6486 -133.2056 341.4821)" class="st5" width="3.41" height="3.41"/>
			
				<rect x="307.2" y="312.25" transform="matrix(0.2241 -0.9746 0.9746 0.2241 -66.2971 544.6427)" class="st5" width="3.41" height="3.41"/>
			
				<rect x="298.27" y="308.96" transform="matrix(0.9206 -0.3905 0.3905 0.9206 -97.4961 141.808)" class="st5" width="3.41" height="3.41"/>
			
				<rect x="303.64" y="308.96" transform="matrix(0.1027 -0.9947 0.9947 0.1027 -35.0406 582.4774)" class="st5" width="3.41" height="3.41"/>
			
				<rect x="307.59" y="305.73" transform="matrix(0.6486 -0.7612 0.7612 0.6486 -125.3097 343.4647)" class="st5" width="3.41" height="3.41"/>
			
				<rect x="300.68" y="304.78" transform="matrix(0.6486 -0.7612 0.7612 0.6486 -127.0138 337.8679)" class="st5" width="3.41" height="3.41"/>
		</g>
	</g>
</g>
<g id="Character">
	<g>
		<g>
			<path class="st19" d="M262.69,258.76c0,0,7.48-0.34,10.64,3.69c3.16,4.03,7.1,22.15,13.28,23.15c0,0-1.32,1.39-4.6-0.71
				c0,0,0.66,3.17,2.63,3.56c0,0-12.96,6.86-25.54,5.41c-14.44-1.67-15.49-17.03-15.49-17.03s-2.28,8.78,3.63,15.56
				c0,0-7.71-5.65-4.42-18.94C246.1,260.16,262.69,258.76,262.69,258.76z"/>
			<path class="st20" d="M255.84,258.75c0,0-6-0.1-6.39-5.52c-0.39-5.42,4.94-3.35,6.42-2.07"/>
			<path class="st20" d="M250.24,259.3c0,0-16.53-0.51-15.25,9.33"/>
		</g>
		<path class="st21" d="M241.32,291.48c-2.98-1.33-23.85,12.9-25.17,12.64c-1.32-0.26-10.82-19.23-10.82-19.23l-4.47,2.09
			c0,0,9.17,24.48,11.54,27.24c2.37,2.76,24.36-9.34,24.36-9.34L241.32,291.48z"/>
		<path class="st9" d="M269.01,297.44c0,0,9.07,9.88,6.56,17.63l-7.19,0.46l-1.7-15.01L269.01,297.44z"/>
		<path class="st21" d="M221.92,361.65c0,0-69.62,17.83-70.67,37.28c-1.05,19.45,65.03,11.7,65.03,11.7l18.64-26.18L221.92,361.65z"
			/>
		<path class="st22" d="M221.92,361.65c0,0-69.62,17.83-70.67,37.28c-1.05,19.45,65.03,11.7,65.03,11.7l18.64-26.18L221.92,361.65z"
			/>
		<path class="st21" d="M240.92,289.82c0,0,2.12,8.32,12.35,10.98c10.23,2.66,21.54-4.28,21.54-4.28l-2.25,19.85l-12.53,31.26
			l-32.01-8.35C228.02,339.28,229.94,302.9,240.92,289.82z"/>
		<path class="st21" d="M251.73,301.97l9.83,0.3c-4.35-5.58,3.53-15.29,3.53-15.29l-9.71,2.11c-2.32,9.61-6.32,9.9-6.32,9.9
			L251.73,301.97z"/>
		<path class="st22" d="M252.65,295.98c4.52-0.41,7.65-2.59,9.75-4.9c1.3-2.4,2.68-4.1,2.68-4.1l-9.71,2.11
			C254.58,292.33,253.61,294.52,252.65,295.98z"/>
		<g>
			<path class="st21" d="M255.38,262.82c-8.47,0.71-10.82,5.47-10.71,14.25c0.13,10.97,3.2,18.52,13.6,15.31
				C272.38,288.02,269.45,261.65,255.38,262.82z"/>
			<path class="st23" d="M250.1,276.14c0,0-0.99,2.31-2.17,3.72c0,0,0.82,1.09,2.31,0.77L250.1,276.14z"/>
			<g>
				<path class="st19" d="M255.83,274.74l-1.83-0.59C254,274.15,254.98,275.6,255.83,274.74z"/>
				<path class="st19" d="M255.19,274.54c0,0,1.28-0.64,2.02,0.54c0,0-0.83-0.48-1.95-0.05L255.19,274.54z"/>
			</g>
			<path class="st24" d="M254.83,269.16c0,0,2.35-0.51,3.78,0.97"/>
			<path class="st24" d="M248.64,269.31c0,0-1.54-0.43-3.32,0.98"/>
			<path class="st19" d="M265.83,276.32c0,0-4.54-6.63-4.39-12.05c0,0-17.36-5.46-16.77,11.65c0,0-2.9-14.99,11.63-16.54
				c14.51-1.55,16.25,19.76,9.26,26.73C265.56,286.11,268.64,280.47,265.83,276.32z"/>
			<path class="st21" d="M264.59,278.23c-0.06-1.37,1.16-3.79,3.72-3.73c2.65,0.07,4.35,5.35-2.07,7.19
				C265.32,281.96,264.71,281.08,264.59,278.23z"/>
			<g>
				<path class="st19" d="M250.18,283.14c0.72,0.88,1.66,2.64,1.66,2.64c0.17-0.06,0.35-0.11,0.52-0.18
					c2.35-0.82,3.16-1.98,3.36-3.02c0.1-0.57,0.01-1.1-0.11-1.51c-0.14-0.48-0.35-0.79-0.35-0.79c-0.98,1.18-3.11,2.12-4.27,2.57
					C250.49,283.04,250.18,283.14,250.18,283.14z"/>
				<path class="st5" d="M250.97,282.84l0.51,0.76c2.21-0.78,3.66-1.63,4.11-2.54c-0.14-0.48-0.35-0.79-0.35-0.79
					C254.26,281.45,252.13,282.39,250.97,282.84z"/>
				<path class="st23" d="M252.35,285.6c2.35-0.82,3.16-1.98,3.36-3.02c-0.79,0.31-1.71,0.78-2.42,1.43
					C252.73,284.51,252.48,285.08,252.35,285.6z"/>
			</g>
			<path class="st19" d="M255.61,263.44c0,0,4.57,13.66,13.34,12.75c8.76-0.91-6.25-17.43-6.25-17.43s-14.77-4.21-21.21,3.98
				c-6.43,8.2,3.19,13.18,3.19,13.18S243.23,265.17,255.61,263.44z"/>
			<path class="st20" d="M255.61,262.45c0,0-0.24,9.6,6.98,12.37"/>
			<g>
				<path class="st19" d="M247.24,275.58l-1.83-0.6C245.41,274.98,246.39,276.43,247.24,275.58z"/>
				<path class="st19" d="M246.6,275.37c0,0,1.28-0.64,2.02,0.54c0,0-0.83-0.48-1.95-0.05L246.6,275.37z"/>
			</g>
		</g>
		<path class="st21" d="M285.87,245.21l3.09-8c0,0-0.2-1.59,0.81-2.35c2.15-1.61,6.6-3.06,7.71-2.9c1.63,0.24,4.99,3.19,4.71,5.11
			c-0.28,1.92-9.79,3.11-9.79,3.11l-3.15,8.74L285.87,245.21z"/>
		<path class="st21" d="M272.56,316.36c0,0-6.03-4.76-3.6-15.28l6.43-29.08l13.57-34.8l3.44,2.98c0,0-9.63,33.86-10.46,35.85
			c-0.43,1.02-2.14,16.23-4.46,26.43C275.34,311.86,272.56,316.36,272.56,316.36z"/>
		<path class="st21" d="M271.09,415.31c-3.91-1.27-13.16-4.01-15.26-4.06c-2.23-0.06-85.28,12.12-95.12-1.35
			c-2.47-3.36,0.65-13.01,11.06-19.95c20.38-13.55,43.69-15.82,43.69-15.82l11.98-29.57l32.28,6.84c0,0,5.27,24.21,5.36,35.26
			c0.04,4.61-3.38,8.15-7.37,10.71c-2.49,1.6-5.21,2.81-7.45,3.67c2.08-0.61,4.46-1.2,6.24-1.37v-0.01c0.87-0.07,1.61-0.06,2.1,0.11
			c2.83,0.94,14.34,9.88,16.96,12.08C278.19,414.06,274.81,416.51,271.09,415.31z"/>
		<path class="st22" d="M257.71,397.38c-2.49,1.6-5.21,2.81-7.45,3.67c2.08-0.61,4.46-1.2,6.24-1.37
			c-8.68,14.49-61.65,11.25-61.65,11.25l42.91-6.81C237.77,404.13,261.92,387.44,257.71,397.38z"/>
		<path class="st12" d="M205.34,366.58l5.18,8.29l4.94-0.74l23.8,29.99c0,0,22.84-2.33,26.81-15.22
			c3.96-12.89-6.34-37.49-6.34-37.49l1.1-5.05l-32.75-8.09l-0.64,6.29l-8.43,17.6L205.34,366.58z"/>
		<g>
			<g>
				<polygon class="st19" points="228.19,338.92 229.86,339.32 228.83,344.86 227.44,344.57 				"/>
				<polygon class="st19" points="231.45,339.7 249.52,344.04 248.6,349.05 230.44,345.21 				"/>
				<polygon class="st19" points="260.36,346.63 259.73,351.41 250.19,349.39 251.11,344.42 				"/>
				<polygon class="st22" points="228.19,338.92 229.86,339.32 228.83,344.86 227.44,344.57 				"/>
				<polygon class="st22" points="231.45,339.7 249.52,344.04 248.6,349.05 230.44,345.21 				"/>
				<polygon class="st22" points="260.36,346.63 259.73,351.41 250.19,349.39 251.11,344.42 				"/>
			</g>
			<path class="st5" d="M235.15,346.42l6.22,1.4c0.4,0.09,0.8-0.16,0.9-0.57l0.98-4.37c0.09-0.4-0.16-0.8-0.57-0.89l-6.22-1.4
				c-0.4-0.09-0.8,0.16-0.9,0.57l-0.98,4.37C234.49,345.93,234.74,346.33,235.15,346.42z"/>
		</g>
		<g>
			<polygon points="204.29,366.85 207.18,365.27 212.29,374.61 209.11,375.14 			"/>
			<polygon class="st25" points="204.29,366.85 207.18,365.27 212.29,374.61 209.11,375.14 			"/>
		</g>
		<polygon class="st22" points="209.11,375.14 222.57,365.86 229.86,371.98 		"/>
		<g>
			<polygon points="214.48,373.95 217.57,372.94 242.19,404.12 238.15,404.62 			"/>
			<polygon class="st25" points="214.48,373.95 217.57,372.94 242.19,404.12 238.15,404.62 			"/>
		</g>
		<g>
			<path class="st9" d="M275.57,315.07l-3.03,3.65l-7.95,19.56l-34.73-15.78c0,0-0.76-22.62,11.06-32.68c0,0,1.31,1.89,3.75,4.01
				c0,0-8.87,8.63,1.66,13.41c9.84,4.48,17.69-5.43,19.98-8.76c0.89-0.29,1.79-0.64,2.71-1.05
				C269.01,297.44,270.38,313.1,275.57,315.07z"/>
			<path class="st13" d="M275.57,315.07l-3.03,3.65l-7.95,19.56l-34.73-15.78c0,0-0.76-22.62,11.06-32.68c0,0,1.31,1.89,3.75,4.01
				c0,0-8.87,8.63,1.66,13.41c9.84,4.48,17.69-5.43,19.98-8.76c0.89-0.29,1.79-0.64,2.71-1.05
				C269.01,297.44,270.38,313.1,275.57,315.07z"/>
			<path class="st22" d="M230.85,321.59l17.36,2.35c0,0-2.7-3.29-4.21-3.55c-1.51-0.26-12.49,0.33-12.49,0.33s5.98-3.16,5.26-4.01
				C236.04,315.85,231.9,315.03,230.85,321.59z"/>
			<path class="st22" d="M272.54,318.72c0,0-4.68-6.88-5.04-9.51C267.5,309.21,265.18,321.85,272.54,318.72z"/>
			<g>
				<path class="st9" d="M230.28,321.14c0,0,1.31-4.17-1.37-6.05c-1.3-0.91-6.22,0.14-6.48-2
					C222.43,313.09,222.07,323.9,230.28,321.14z"/>
				<path class="st26" d="M230.28,321.14c0,0,1.31-4.17-1.37-6.05c-1.3-0.91-6.22,0.14-6.48-2
					C222.43,313.09,222.07,323.9,230.28,321.14z"/>
			</g>
			<g>
				<path class="st9" d="M232.03,322.89c0,0-1.32-4.17-4.59-4.17c-1.59,0-5.01,3.68-6.46,2.08
					C220.99,320.81,226.9,329.86,232.03,322.89z"/>
				<path class="st27" d="M232.03,322.89c0,0-1.32-4.17-4.59-4.17c-1.59,0-5.01,3.68-6.46,2.08
					C220.99,320.81,226.9,329.86,232.03,322.89z"/>
			</g>
		</g>
		<path class="st21" d="M205.5,286.97c0,0,0.89-2.2,0.49-2.88c-0.39-0.68-5.72-10.02-6.81-9.94c-1.08,0.08-5.72,4.18-5.72,6.12
			c0,1.95,4.93,7.39,6.31,8.17S205.5,286.97,205.5,286.97z"/>
		<g>
			<path d="M197.16,283.24l-0.3-0.11c-0.41-0.15-0.62-0.61-0.47-1.03l4.51-11.99l1.79,0.67l-4.51,11.99
				C198.04,283.19,197.58,283.4,197.16,283.24z"/>
			<path class="st26" d="M197.16,283.24l-0.3-0.11c-0.41-0.15-0.62-0.61-0.47-1.03l4.51-11.99l1.79,0.67l-4.51,11.99
				C198.04,283.19,197.58,283.4,197.16,283.24z"/>
			<path class="st12" d="M203.64,275.2c0.85,0.32,1.79-0.08,2.15-0.91c0.26-0.59,0.51-1.2,0.74-1.83
				c2.75-7.32,2.83-14.06,0.17-15.06c-2.66-1-7.04,4.12-9.8,11.44c-0.24,0.63-0.45,1.25-0.65,1.87c-0.27,0.86,0.18,1.78,1.02,2.1
				L203.64,275.2z"/>
		</g>
	</g>
</g>
<g id="Fan">
	<g>
		<g>
			<g>
				<path class="st12" d="M173.97,258.1c-4.02,0-7.09-1.25-10.06-2.46c-2.77-1.13-5.4-2.2-8.65-2.2c-6.54,0-10.28,3.18-10.32,3.21
					l-1.2-1.37c0.17-0.15,4.25-3.66,11.51-3.66c3.61,0,6.52,1.18,9.34,2.33c2.81,1.14,5.71,2.32,9.38,2.32c3.7,0,6.16-1.2,8.54-2.36
					c2.32-1.13,4.71-2.29,8.08-2.29v1.82c-2.95,0-5.05,1.03-7.28,2.11C180.74,256.81,178.08,258.1,173.97,258.1z"/>
			</g>
			<g>
				<path class="st12" d="M182.63,277.56c-4.02,0-7.09-1.25-10.06-2.46c-2.77-1.13-5.4-2.2-8.65-2.2c-6.54,0-10.28,3.18-10.32,3.21
					l-1.2-1.37c0.17-0.15,4.25-3.66,11.51-3.66c3.61,0,6.52,1.18,9.34,2.33c2.81,1.14,5.71,2.32,9.38,2.32c3.7,0,6.16-1.2,8.54-2.36
					c2.32-1.13,4.71-2.29,8.08-2.29v1.82c-2.95,0-5.05,1.03-7.29,2.11C189.4,276.27,186.75,277.56,182.63,277.56z"/>
			</g>
			<g>
				<path class="st12" d="M182.63,296.38c-4.02,0-7.09-1.25-10.06-2.46c-2.77-1.13-5.4-2.19-8.65-2.19
					c-6.54,0-10.28,3.18-10.32,3.21l-1.2-1.37c0.17-0.15,4.25-3.66,11.51-3.66c3.61,0,6.52,1.18,9.34,2.33
					c2.81,1.14,5.71,2.32,9.38,2.32c3.7,0,6.16-1.2,8.54-2.36c2.32-1.13,4.71-2.29,8.08-2.29v1.82c-2.95,0-5.05,1.03-7.29,2.11
					C189.4,295.09,186.75,296.38,182.63,296.38z"/>
			</g>
			<g>
				<path class="st12" d="M173.97,314.77c-4.02,0-7.09-1.25-10.06-2.46c-2.77-1.13-5.4-2.2-8.65-2.2c-6.54,0-10.28,3.18-10.32,3.21
					l-1.2-1.37c0.17-0.15,4.25-3.66,11.51-3.66c3.61,0,6.52,1.18,9.34,2.33c2.81,1.14,5.71,2.32,9.38,2.32c3.7,0,6.16-1.2,8.54-2.36
					c2.32-1.13,4.71-2.29,8.08-2.29v1.82c-2.95,0-5.05,1.03-7.28,2.11C180.74,313.48,178.08,314.77,173.97,314.77z"/>
			</g>
			<g class="st28">
				<path class="st5" d="M173.97,258.1c-4.02,0-7.09-1.25-10.06-2.46c-2.77-1.13-5.4-2.2-8.65-2.2c-6.54,0-10.28,3.18-10.32,3.21
					l-1.2-1.37c0.17-0.15,4.25-3.66,11.51-3.66c3.61,0,6.52,1.18,9.34,2.33c2.81,1.14,5.71,2.32,9.38,2.32c3.7,0,6.16-1.2,8.54-2.36
					c2.32-1.13,4.71-2.29,8.08-2.29v1.82c-2.95,0-5.05,1.03-7.28,2.11C180.74,256.81,178.08,258.1,173.97,258.1z"/>
			</g>
			<g class="st28">
				<path class="st5" d="M182.63,277.56c-4.02,0-7.09-1.25-10.06-2.46c-2.77-1.13-5.4-2.2-8.65-2.2c-6.54,0-10.28,3.18-10.32,3.21
					l-1.2-1.37c0.17-0.15,4.25-3.66,11.51-3.66c3.61,0,6.52,1.18,9.34,2.33c2.81,1.14,5.71,2.32,9.38,2.32c3.7,0,6.16-1.2,8.54-2.36
					c2.32-1.13,4.71-2.29,8.08-2.29v1.82c-2.95,0-5.05,1.03-7.29,2.11C189.4,276.27,186.75,277.56,182.63,277.56z"/>
			</g>
			<g class="st28">
				<path class="st5" d="M182.63,296.38c-4.02,0-7.09-1.25-10.06-2.46c-2.77-1.13-5.4-2.19-8.65-2.19c-6.54,0-10.28,3.18-10.32,3.21
					l-1.2-1.37c0.17-0.15,4.25-3.66,11.51-3.66c3.61,0,6.52,1.18,9.34,2.33c2.81,1.14,5.71,2.32,9.38,2.32c3.7,0,6.16-1.2,8.54-2.36
					c2.32-1.13,4.71-2.29,8.08-2.29v1.82c-2.95,0-5.05,1.03-7.29,2.11C189.4,295.09,186.75,296.38,182.63,296.38z"/>
			</g>
			<g class="st28">
				<path class="st5" d="M173.97,314.77c-4.02,0-7.09-1.25-10.06-2.46c-2.77-1.13-5.4-2.2-8.65-2.2c-6.54,0-10.28,3.18-10.32,3.21
					l-1.2-1.37c0.17-0.15,4.25-3.66,11.51-3.66c3.61,0,6.52,1.18,9.34,2.33c2.81,1.14,5.71,2.32,9.38,2.32c3.7,0,6.16-1.2,8.54-2.36
					c2.32-1.13,4.71-2.29,8.08-2.29v1.82c-2.95,0-5.05,1.03-7.28,2.11C180.74,313.48,178.08,314.77,173.97,314.77z"/>
			</g>
		</g>
		<g>
			<path class="st12" d="M155.84,284.9c0,16.9-7.74,31.13-18.31,35.47c-1.94,0.81-3.99,1.27-6.09,1.35
				c-0.24,0.01-0.46,0.02-0.7,0.02h-0.01c-13.84-0.02-25.08-16.51-25.08-36.84c0-20.35,11.23-36.84,25.08-36.86
				c0.01,0,0.01,0,0.02,0c0.16,0,0.34,0,0.5,0.01C144.89,248.44,155.84,264.78,155.84,284.9z"/>
			<path class="st16" d="M155.84,284.91c0,16.9-7.74,31.13-18.31,35.47c-1.94,0.81-3.99,1.27-6.09,1.35
				c1.63-0.11,3.21-0.56,4.73-1.35c8.47-4.34,14.67-18.57,14.67-35.47c0-20.05-8.72-36.34-19.59-36.85
				C144.89,248.45,155.84,264.79,155.84,284.91z"/>
			<g>
				<path class="st29" d="M136.67,305.37c-1.27,1.33-2.75,2.46-4.37,3.34"/>
				<path class="st29" d="M142.18,274.37c2.53,9.25,1.98,20.82-3.72,28.84"/>
				<path class="st29" d="M139.42,267.72c0.76,1.34,1.41,2.75,1.95,4.19"/>
				<path class="st29" d="M127.62,259.34c0.6,0,1.18,0.05,1.75,0.16"/>
				<path class="st29" d="M131.56,260.14c2.16,0.89,4.06,2.44,5.57,4.25"/>
				<path class="st29" d="M130.66,301.88c-1.16,0.66-2.48,1.03-3.82,1.03"/>
				<path class="st29" d="M138.13,287.39c-0.38,4.79-2.08,9.68-5.59,13.08"/>
				<path class="st29" d="M137.22,277.78c0.64,2.28,0.97,4.65,1,7.03"/>
				<path class="st29" d="M134.56,271.81c0.69,1.07,1.28,2.21,1.77,3.39"/>
				<path class="st29" d="M126.83,266.87c1.81,0,3.53,0.72,4.94,1.83"/>
				<path class="st29" d="M136.77,312.33c-1.24,0.81-2.58,1.45-4,1.88"/>
				<path class="st29" d="M131.23,314.57c-0.72,0.13-1.45,0.19-2.18,0.19"/>
				<path class="st29" d="M145.79,301.09c-1.63,3.66-3.96,7.02-6.97,9.68"/>
				<path class="st29" d="M143.3,264.47c6.08,9.97,7.33,23.3,3.42,34.28"/>
				<path class="st29" d="M133.91,255.97c2.62,1.05,4.91,2.82,6.77,4.93"/>
			</g>
			<g>
				<g class="st30">
					<path class="st12" d="M155.84,285.34h-33.31c-0.25,0-0.45-0.2-0.45-0.45c0-0.25,0.2-0.45,0.45-0.45h33.31
						c0.25,0,0.45,0.2,0.45,0.45C156.3,285.14,156.1,285.34,155.84,285.34z"/>
				</g>
				<g>
					<g>
						<path class="st12" d="M122.53,283.42c-0.25,0-0.45-0.2-0.45-0.45c0-0.23,0.18-0.43,0.4-0.45c0.22-0.05,1.63-0.5,3.26-1.01
							c6.4-2.03,19.7-6.26,24.78-6.84c1.7-0.2,3.26-0.06,4.64,0.41c0.24,0.08,0.36,0.34,0.28,0.58c-0.08,0.24-0.34,0.36-0.58,0.28
							c-1.25-0.43-2.68-0.55-4.24-0.37c-4.99,0.57-18.25,4.78-24.61,6.8C122.89,283.37,122.69,283.42,122.53,283.42z"/>
					</g>
					<g>
						<path class="st12" d="M121.99,281.51c-0.14,0-0.28-0.06-0.37-0.19c-0.15-0.2-0.1-0.49,0.1-0.63
							c0.82-0.6,20.08-14.62,26.15-15.44c1.66-0.22,3.3,0.11,4.88,0.97c0.22,0.12,0.3,0.4,0.18,0.62c-0.12,0.22-0.4,0.3-0.62,0.18
							c-1.41-0.77-2.86-1.06-4.33-0.87c-5.84,0.78-25.54,15.12-25.74,15.27C122.18,281.48,122.08,281.51,121.99,281.51z"/>
					</g>
					<g>
						<path class="st12" d="M121.27,278.64c-0.11,0-0.21-0.04-0.3-0.11c-0.19-0.17-0.21-0.45-0.04-0.64
							c0.64-0.73,15.77-17.78,22.61-20.51c1.29-0.52,3.18,0.05,5.6,1.69c0.21,0.14,0.26,0.42,0.12,0.63
							c-0.14,0.21-0.42,0.26-0.63,0.12c-2.1-1.42-3.78-1.98-4.75-1.6c-6.64,2.65-22.12,20.09-22.27,20.27
							C121.52,278.59,121.4,278.64,121.27,278.64z"/>
					</g>
					<g>
						<path class="st12" d="M119.84,276.63c-0.07,0-0.14-0.02-0.2-0.05c-0.22-0.11-0.32-0.38-0.2-0.61
							c0.4-0.81,9.96-19.82,17.71-25.09c0.77-0.53,1.6-0.82,2.53-0.89c0.24-0.02,0.47,0.17,0.49,0.42c0.02,0.25-0.17,0.47-0.42,0.49
							c-0.76,0.06-1.45,0.3-2.09,0.74c-7.56,5.13-17.31,24.54-17.41,24.74C120.17,276.53,120,276.63,119.84,276.63z"/>
					</g>
					<g>
						<path class="st12" d="M118.28,274.5c-0.04,0-0.08-0.01-0.12-0.02c-0.24-0.07-0.38-0.32-0.32-0.56
							c0.27-0.96,6.54-23.55,10.66-26.15l0,0c0.31-0.19,0.72,0.03,0.72,0.37c0,0.19-0.11,0.35-0.28,0.42
							c-3.18,2.11-8.46,19.17-10.23,25.6C118.66,274.37,118.48,274.5,118.28,274.5z"/>
					</g>
					<g>
						<path class="st12" d="M116.05,274.5c-0.01,0-0.02,0-0.02,0c-0.25-0.01-0.44-0.23-0.43-0.48c0.03-0.61,0.79-14.93,3.13-21.96
							c0.08-0.24,0.34-0.37,0.57-0.29c0.24,0.08,0.37,0.34,0.29,0.57c-2.3,6.92-3.07,21.58-3.08,21.72
							C116.49,274.31,116.29,274.5,116.05,274.5z"/>
					</g>
					<g>
						<path class="st12" d="M113.73,276.63c-0.21,0-0.4-0.15-0.45-0.37c-0.02-0.09-1.74-9.28-2.06-15.27
							c-0.01-0.25,0.18-0.46,0.43-0.48c0.24-0.03,0.46,0.18,0.48,0.43c0.31,5.93,2.03,15.06,2.04,15.15
							c0.05,0.25-0.12,0.48-0.36,0.53C113.78,276.62,113.76,276.63,113.73,276.63z"/>
					</g>
					<g>
						<path class="st12" d="M112.18,279.46c-0.16,0-0.32-0.09-0.4-0.24c-0.03-0.05-2.63-5.03-4.29-9.41
							c-0.09-0.23,0.03-0.5,0.26-0.59c0.23-0.09,0.5,0.03,0.59,0.26c1.64,4.33,4.22,9.26,4.25,9.31c0.12,0.22,0.03,0.5-0.19,0.61
							C112.32,279.44,112.25,279.46,112.18,279.46z"/>
					</g>
				</g>
				<g>
					<g>
						<path class="st12" d="M151.98,295.2c-0.47,0-0.96-0.03-1.46-0.09c-5.08-0.59-18.38-4.81-24.77-6.84
							c-1.66-0.53-3.1-0.98-3.28-1.02c-0.25,0-0.42-0.2-0.42-0.45c0-0.25,0.23-0.45,0.48-0.45c0.15,0,0.36,0.06,3.5,1.06
							c6.36,2.02,19.61,6.23,24.6,6.81c1.56,0.18,2.99,0.06,4.25-0.37c0.24-0.08,0.5,0.05,0.58,0.28c0.08,0.24-0.05,0.49-0.28,0.58
							C154.19,295.04,153.13,295.2,151.98,295.2z"/>
					</g>
					<g>
						<path class="st12" d="M148.89,304.59c-0.34,0-0.68-0.02-1.01-0.07c-6.07-0.81-25.34-14.84-26.15-15.44
							c-0.2-0.15-0.25-0.43-0.1-0.63c0.15-0.2,0.43-0.25,0.63-0.1c0.2,0.15,19.89,14.49,25.74,15.27c1.45,0.2,2.91-0.09,4.33-0.87
							c0.22-0.12,0.5-0.04,0.62,0.18c0.12,0.22,0.04,0.5-0.18,0.62C151.5,304.24,150.2,304.59,148.89,304.59z"/>
					</g>
					<g>
						<path class="st12" d="M144.57,312.58c-0.38,0-0.72-0.06-1.03-0.19c-6.84-2.73-21.97-19.78-22.61-20.5
							c-0.17-0.19-0.15-0.47,0.04-0.64c0.19-0.17,0.48-0.15,0.64,0.04c0.16,0.18,15.63,17.61,22.27,20.26
							c0.97,0.39,2.66-0.18,4.75-1.6c0.21-0.14,0.49-0.09,0.63,0.12c0.14,0.21,0.09,0.49-0.12,0.63
							C147.3,311.96,145.77,312.58,144.57,312.58z"/>
					</g>
					<g>
						<path class="st12" d="M139.68,319.78c-0.01,0-0.02,0-0.04,0c-0.9-0.07-1.74-0.37-2.5-0.88c-7.75-5.26-17.31-24.28-17.71-25.08
							c-0.11-0.22-0.02-0.5,0.2-0.61c0.22-0.11,0.5-0.02,0.61,0.2c0.1,0.2,9.85,19.61,17.41,24.74c0.63,0.42,1.32,0.67,2.06,0.73
							c0.25,0.02,0.44,0.24,0.42,0.49C140.11,319.6,139.91,319.78,139.68,319.78z"/>
					</g>
					<g>
						<path class="st12" d="M128.74,322.07c-0.08,0-0.17-0.02-0.24-0.07c-4.12-2.61-10.4-25.2-10.66-26.16
							c-0.07-0.24,0.07-0.49,0.32-0.56c0.24-0.06,0.49,0.08,0.56,0.32c1.78,6.45,7.1,23.62,10.27,25.63
							c0.21,0.13,0.28,0.41,0.14,0.63C129.04,322,128.89,322.07,128.74,322.07z"/>
					</g>
					<g>
						<path class="st12" d="M119.16,318.02c-0.19,0-0.37-0.12-0.43-0.31c-2.33-7.03-3.1-21.36-3.13-21.96
							c-0.01-0.25,0.18-0.46,0.43-0.48c0.24-0.03,0.46,0.18,0.48,0.43c0.01,0.15,0.79,14.81,3.08,21.72
							c0.08,0.24-0.05,0.49-0.29,0.57C119.25,318.02,119.21,318.02,119.16,318.02z"/>
					</g>
					<g>
						<path class="st12" d="M111.68,309.26c-0.01,0-0.02,0-0.02,0c-0.25-0.01-0.44-0.23-0.43-0.48c0.32-5.99,2.04-15.17,2.06-15.27
							c0.05-0.25,0.28-0.41,0.53-0.36c0.25,0.05,0.41,0.28,0.36,0.53c-0.02,0.09-1.73,9.22-2.04,15.15
							C112.12,309.08,111.92,309.26,111.68,309.26z"/>
					</g>
					<g>
						<path class="st12" d="M107.91,300.59c-0.05,0-0.11-0.01-0.16-0.03c-0.23-0.09-0.35-0.35-0.26-0.59
							c1.65-4.38,4.26-9.36,4.29-9.41c0.12-0.22,0.39-0.31,0.61-0.19c0.22,0.12,0.31,0.39,0.19,0.61c-0.03,0.05-2.61,4.98-4.24,9.31
							C108.26,300.48,108.09,300.59,107.91,300.59z"/>
					</g>
				</g>
			</g>
			<g class="st31">
				<g class="st30">
					<path class="st5" d="M155.84,285.34h-33.31c-0.25,0-0.45-0.2-0.45-0.45c0-0.25,0.2-0.45,0.45-0.45h33.31
						c0.25,0,0.45,0.2,0.45,0.45C156.3,285.14,156.1,285.34,155.84,285.34z"/>
				</g>
				<g>
					<g>
						<path class="st5" d="M122.53,283.42c-0.25,0-0.45-0.2-0.45-0.45c0-0.23,0.18-0.43,0.4-0.45c0.22-0.05,1.63-0.5,3.26-1.01
							c6.4-2.03,19.7-6.26,24.78-6.84c1.7-0.2,3.26-0.06,4.64,0.41c0.24,0.08,0.36,0.34,0.28,0.58c-0.08,0.24-0.34,0.36-0.58,0.28
							c-1.25-0.43-2.68-0.55-4.24-0.37c-4.99,0.57-18.25,4.78-24.61,6.8C122.89,283.37,122.69,283.42,122.53,283.42z"/>
					</g>
					<g>
						<path class="st5" d="M121.99,281.51c-0.14,0-0.28-0.06-0.37-0.19c-0.15-0.2-0.1-0.49,0.1-0.63
							c0.82-0.6,20.08-14.62,26.15-15.44c1.66-0.22,3.3,0.11,4.88,0.97c0.22,0.12,0.3,0.4,0.18,0.62c-0.12,0.22-0.4,0.3-0.62,0.18
							c-1.41-0.77-2.86-1.06-4.33-0.87c-5.84,0.78-25.54,15.12-25.74,15.27C122.18,281.48,122.08,281.51,121.99,281.51z"/>
					</g>
					<g>
						<path class="st5" d="M121.27,278.64c-0.11,0-0.21-0.04-0.3-0.11c-0.19-0.17-0.21-0.45-0.04-0.64
							c0.64-0.73,15.77-17.78,22.61-20.51c1.29-0.52,3.18,0.05,5.6,1.69c0.21,0.14,0.26,0.42,0.12,0.63
							c-0.14,0.21-0.42,0.26-0.63,0.12c-2.1-1.42-3.78-1.98-4.75-1.6c-6.64,2.65-22.12,20.09-22.27,20.27
							C121.52,278.59,121.4,278.64,121.27,278.64z"/>
					</g>
					<g>
						<path class="st5" d="M119.84,276.63c-0.07,0-0.14-0.02-0.2-0.05c-0.22-0.11-0.32-0.38-0.2-0.61
							c0.4-0.81,9.96-19.82,17.71-25.09c0.77-0.53,1.6-0.82,2.53-0.89c0.24-0.02,0.47,0.17,0.49,0.42c0.02,0.25-0.17,0.47-0.42,0.49
							c-0.76,0.06-1.45,0.3-2.09,0.74c-7.56,5.13-17.31,24.54-17.41,24.74C120.17,276.53,120,276.63,119.84,276.63z"/>
					</g>
					<g>
						<path class="st5" d="M118.28,274.5c-0.04,0-0.08-0.01-0.12-0.02c-0.24-0.07-0.38-0.32-0.32-0.56
							c0.27-0.96,6.54-23.55,10.66-26.15l0,0c0.31-0.19,0.72,0.03,0.72,0.37c0,0.19-0.11,0.35-0.28,0.42
							c-3.18,2.11-8.46,19.17-10.23,25.6C118.66,274.37,118.48,274.5,118.28,274.5z"/>
					</g>
					<g>
						<path class="st5" d="M116.05,274.5c-0.01,0-0.02,0-0.02,0c-0.25-0.01-0.44-0.23-0.43-0.48c0.03-0.61,0.79-14.93,3.13-21.96
							c0.08-0.24,0.34-0.37,0.57-0.29c0.24,0.08,0.37,0.34,0.29,0.57c-2.3,6.92-3.07,21.58-3.08,21.72
							C116.49,274.31,116.29,274.5,116.05,274.5z"/>
					</g>
					<g>
						<path class="st5" d="M113.73,276.63c-0.21,0-0.4-0.15-0.45-0.37c-0.02-0.09-1.74-9.28-2.06-15.27
							c-0.01-0.25,0.18-0.46,0.43-0.48c0.24-0.03,0.46,0.18,0.48,0.43c0.31,5.93,2.03,15.06,2.04,15.15
							c0.05,0.25-0.12,0.48-0.36,0.53C113.78,276.62,113.76,276.63,113.73,276.63z"/>
					</g>
					<g>
						<path class="st5" d="M112.18,279.46c-0.16,0-0.32-0.09-0.4-0.24c-0.03-0.05-2.63-5.03-4.29-9.41
							c-0.09-0.23,0.03-0.5,0.26-0.59c0.23-0.09,0.5,0.03,0.59,0.26c1.64,4.33,4.22,9.26,4.25,9.31c0.12,0.22,0.03,0.5-0.19,0.61
							C112.32,279.44,112.25,279.46,112.18,279.46z"/>
					</g>
				</g>
				<g>
					<g>
						<path class="st5" d="M151.98,295.2c-0.47,0-0.96-0.03-1.46-0.09c-5.08-0.59-18.38-4.81-24.77-6.84
							c-1.66-0.53-3.1-0.98-3.28-1.02c-0.25,0-0.42-0.2-0.42-0.45c0-0.25,0.23-0.45,0.48-0.45c0.15,0,0.36,0.06,3.5,1.06
							c6.36,2.02,19.61,6.23,24.6,6.81c1.56,0.18,2.99,0.06,4.25-0.37c0.24-0.08,0.5,0.05,0.58,0.28c0.08,0.24-0.05,0.49-0.28,0.58
							C154.19,295.04,153.13,295.2,151.98,295.2z"/>
					</g>
					<g>
						<path class="st5" d="M148.89,304.59c-0.34,0-0.68-0.02-1.01-0.07c-6.07-0.81-25.34-14.84-26.15-15.44
							c-0.2-0.15-0.25-0.43-0.1-0.63c0.15-0.2,0.43-0.25,0.63-0.1c0.2,0.15,19.89,14.49,25.74,15.27c1.45,0.2,2.91-0.09,4.33-0.87
							c0.22-0.12,0.5-0.04,0.62,0.18c0.12,0.22,0.04,0.5-0.18,0.62C151.5,304.24,150.2,304.59,148.89,304.59z"/>
					</g>
					<g>
						<path class="st5" d="M144.57,312.58c-0.38,0-0.72-0.06-1.03-0.19c-6.84-2.73-21.97-19.78-22.61-20.5
							c-0.17-0.19-0.15-0.47,0.04-0.64c0.19-0.17,0.48-0.15,0.64,0.04c0.16,0.18,15.63,17.61,22.27,20.26
							c0.97,0.39,2.66-0.18,4.75-1.6c0.21-0.14,0.49-0.09,0.63,0.12c0.14,0.21,0.09,0.49-0.12,0.63
							C147.3,311.96,145.77,312.58,144.57,312.58z"/>
					</g>
					<g>
						<path class="st5" d="M139.68,319.78c-0.01,0-0.02,0-0.04,0c-0.9-0.07-1.74-0.37-2.5-0.88c-7.75-5.26-17.31-24.28-17.71-25.08
							c-0.11-0.22-0.02-0.5,0.2-0.61c0.22-0.11,0.5-0.02,0.61,0.2c0.1,0.2,9.85,19.61,17.41,24.74c0.63,0.42,1.32,0.67,2.06,0.73
							c0.25,0.02,0.44,0.24,0.42,0.49C140.11,319.6,139.91,319.78,139.68,319.78z"/>
					</g>
					<g>
						<path class="st5" d="M128.74,322.07c-0.08,0-0.17-0.02-0.24-0.07c-4.12-2.61-10.4-25.2-10.66-26.16
							c-0.07-0.24,0.07-0.49,0.32-0.56c0.24-0.06,0.49,0.08,0.56,0.32c1.78,6.45,7.1,23.62,10.27,25.63
							c0.21,0.13,0.28,0.41,0.14,0.63C129.04,322,128.89,322.07,128.74,322.07z"/>
					</g>
					<g>
						<path class="st5" d="M119.16,318.02c-0.19,0-0.37-0.12-0.43-0.31c-2.33-7.03-3.1-21.36-3.13-21.96
							c-0.01-0.25,0.18-0.46,0.43-0.48c0.24-0.03,0.46,0.18,0.48,0.43c0.01,0.15,0.79,14.81,3.08,21.72
							c0.08,0.24-0.05,0.49-0.29,0.57C119.25,318.02,119.21,318.02,119.16,318.02z"/>
					</g>
					<g>
						<path class="st5" d="M111.68,309.26c-0.01,0-0.02,0-0.02,0c-0.25-0.01-0.44-0.23-0.43-0.48c0.32-5.99,2.04-15.17,2.06-15.27
							c0.05-0.25,0.28-0.41,0.53-0.36c0.25,0.05,0.41,0.28,0.36,0.53c-0.02,0.09-1.73,9.22-2.04,15.15
							C112.12,309.08,111.92,309.26,111.68,309.26z"/>
					</g>
					<g>
						<path class="st5" d="M107.91,300.59c-0.05,0-0.11-0.01-0.16-0.03c-0.23-0.09-0.35-0.35-0.26-0.59
							c1.65-4.38,4.26-9.36,4.29-9.41c0.12-0.22,0.39-0.31,0.61-0.19c0.22,0.12,0.31,0.39,0.19,0.61c-0.03,0.05-2.61,4.98-4.24,9.31
							C108.26,300.48,108.09,300.59,107.91,300.59z"/>
					</g>
				</g>
			</g>
			<g>
				<path class="st12" d="M118.79,269.71c-6.29,0-14.49,3.02-18.06,4.46c-0.63,0.14-1.23,0.39-1.8,0.76l0,0l0,0
					c-2.53,1.66-4.3,5.49-4.3,9.96c0,4.47,1.77,8.3,4.3,9.96l0,0l0,0c0.37,0.24,0.75,0.43,1.15,0.57
					c2.83,1.35,10.59,4.65,18.71,4.65c5.49,0,9.95-6.8,9.95-15.18C128.74,276.51,124.29,269.71,118.79,269.71z"/>
				<path class="st16" d="M118.79,269.71c-6.29,0-14.49,3.02-18.06,4.46c-0.63,0.14-1.23,0.39-1.8,0.76l0,0l0,0
					c-2.53,1.66-4.3,5.49-4.3,9.96c0,4.47,1.77,8.3,4.3,9.96l0,0l0,0c0.37,0.24,0.75,0.43,1.15,0.57
					c2.83,1.35,10.59,4.65,18.71,4.65c5.49,0,9.95-6.8,9.95-15.18C128.74,276.51,124.29,269.71,118.79,269.71z"/>
				<ellipse class="st16" cx="101.74" cy="284.89" rx="7.1" ry="10.84"/>
			</g>
		</g>
		<g>
			<path class="st12" d="M101.43,296.04l-5.62,22.36l9.84,3.1l6.21-19.1l7.52-4.36l-10.54-2.84
				C108.84,295.2,105.08,297.87,101.43,296.04z"/>
			<path class="st32" d="M101.43,296.04l-5.62,22.36l9.84,3.1l6.21-19.1l7.52-4.36l-10.54-2.84
				C108.84,295.2,105.08,297.87,101.43,296.04z"/>
		</g>
		<g>
			<path class="st12" d="M106.28,362.8c-0.57,0.7-1.21,1.23-1.89,1.61c-6.6,3.56-15.21-39.2-15.21-39.2l1.39-15.42
				c0.09-0.99,0.93-1.74,1.92-1.74h7.14l12.93,5.89C112.57,313.93,114.37,353.1,106.28,362.8z"/>
			<path class="st22" d="M106.28,362.8c-0.57,0.7-1.21,1.23-1.89,1.61c-6.6,3.56-15.21-39.2-15.21-39.2l1.39-15.42
				c0.09-0.99,0.93-1.74,1.92-1.74h7.14l0.03,17.17c0,0,5.33,5.12,7.12,11.12C108.37,341.61,110.27,353.19,106.28,362.8z"/>
		</g>
		<g>
			<path class="st12" d="M93.68,331.69c0,0,7.5-1.22,11.98,4.7v66.42H93.68V331.69z"/>
			<path class="st32" d="M93.68,331.69c0,0,7.5-1.22,11.98,4.7v66.42H93.68V331.69z"/>
		</g>
		<path class="st12" d="M144.8,413.23v3.01H73.51v-3.1c0-0.34,0.13-0.65,0.37-0.89l18.89-13.92c0,0,10.88-1.2,15.72,1.21
			l35.51,12.55c0.45,0.17,0.75,0.58,0.78,1.05C144.8,413.16,144.8,413.2,144.8,413.23z"/>
		<path class="st22" d="M144.8,413.23v3.01H73.51v-3.1h71.28C144.8,413.16,144.8,413.2,144.8,413.23z"/>
	</g>
</g>
</svg>
