<?xml version="1.0" encoding="utf-8"?>
<!-- Generator: Adobe Illustrator 25.2.0, SVG Export Plug-In . SVG Version: 6.00 Build 0)  -->
<svg version="1.1" xmlns="http://www.w3.org/2000/svg" xmlns:xlink="http://www.w3.org/1999/xlink" x="0px" y="0px"
	 viewBox="0 0 500 500" style="enable-background:new 0 0 500 500;" xml:space="preserve">
<style type="text/css">
	.st0{fill:#FAFAFA;}
	.st1{fill:#E6E6E6;}
	.st2{fill:#F5F5F5;}
	.st3{fill:#E0E0E0;}
	.st4{fill:#EBEBEB;}
	.st5{fill:#FFFFFF;}
	.st6{fill:#F0F0F0;}
	.st7{fill:#455A64;}
	.st8{fill:#535657;}
	.st9{opacity:0.6;fill:#FFFFFF;}
	.st10{opacity:0.8;fill:#FFFFFF;}
	.st11{opacity:0.3;fill:#F8F9FA;}
	.st12{fill:#37474F;}
	.st13{fill:#56A3A6;}
	.st14{opacity:0.2;}
	.st15{fill:#263238;}
	.st16{opacity:0.3;}
	.st17{fill:#CCCCCC;}
	.st18{opacity:0.1;}
	.st19{fill:#667490;}
	.st20{fill:none;stroke:#E0E0E0;stroke-width:0.3613;stroke-miterlimit:10;}
	.st21{fill:#797596;}
	.st22{opacity:0.8;}
	.st23{opacity:0.6;}
	.st24{opacity:0.4;}
	.st25{opacity:0.3;fill:#667490;}
	.st26{fill:#FFBDA7;}
	.st27{fill:#F0997A;}
	.st28{fill:#BA68C8;}
	.st29{fill:#B16668;}
	.st30{fill:#F28F8F;}
	.st31{fill:#00A7E1;}
	.st32{opacity:0.83;fill:#FFFFFF;}
	.st33{opacity:0.7;fill:#FFFFFF;}
	.st34{opacity:0.05;}
	.st35{opacity:0.15;fill:#FFFFFF;}
	.st36{opacity:0.4;fill:#FFFFFF;}
	.st37{opacity:0.2;fill:#00A7E1;}
	.st38{opacity:0.88;fill:#FFFFFF;}
	.st39{opacity:0.35;fill:#FFFFFF;}
	.st40{opacity:0.03;}
	.st41{opacity:0.1;fill:#00A7E1;}
	.st42{opacity:0.5;fill:#FFFFFF;}
	.st43{opacity:0.3;fill:#FFFFFF;}
	.st44{fill:#4CA419;}
	.st45{opacity:0.25;}
	.st46{fill:#E31B23;}
</style>
<g id="Floor">
	<ellipse id="Floor_3_" class="st0" cx="255" cy="361.02" rx="218.62" ry="130.05"/>
</g>
<g id="Window">
	<g id="Window_4_">
		<path class="st1" d="M24.89,123.07c0-35.7,23.51-78.22,52.52-94.96c15.35-8.86,29.17-8.73,38.77-1.34
			c11.94,4.96,19.58,18.68,19.58,39.03l0,166.24L30.73,292.67l-5.84-3.37L24.89,123.07z"/>
		<path class="st2" d="M30.73,292.67l0-166.23c0-35.7,23.51-78.22,52.52-94.96c29-16.75,52.52-1.38,52.52,34.32l0,166.23
			L30.73,292.67z"/>
		<path class="st3" d="M36.47,126.44l0,156.28l93.54-54.01l0-162.9c0-17.84-6.28-30.15-16.84-34.03c-2.34-0.88-4.91-1.32-7.66-1.32
			c-5.98,0-12.5,2.01-19.41,6C58.74,52.26,36.47,92.63,36.47,126.44z"/>
		<polygon class="st4" points="130.02,228.71 124.08,225.29 36.47,275.89 36.47,282.72 		"/>
		<path class="st5" d="M36.47,126.44l0,149.44l87.61-50.59l0.01-162.92c0-14.18-3.98-24.87-10.92-30.6
			c-2.34-0.88-4.91-1.32-7.66-1.32c-5.98,0-12.5,2.01-19.41,6C58.74,52.26,36.47,92.63,36.47,126.44z"/>
		<polygon class="st2" points="80.37,257.37 86.12,254.06 86.12,34.39 80.37,34.39 		"/>
		<path class="st3" d="M74.63,44.76l0,209.3l5.75,3.3l0-217.19C78.42,41.59,76.51,43.11,74.63,44.76z"/>
		<g>
			<polygon class="st2" points="130.02,167.73 86.12,193.08 86.12,199.82 130.02,174.48 			"/>
			<polygon class="st4" points="124.08,164.31 130.02,167.73 86.12,193.08 86.12,186.34 			"/>
		</g>
		<g>
			<polygon class="st2" points="80.37,196.39 36.47,221.74 36.47,228.47 80.37,203.14 			"/>
			<polygon class="st4" points="74.44,192.97 80.37,196.39 36.47,221.74 36.47,215 			"/>
		</g>
		<g>
			<polygon class="st2" points="130.02,78.6 86.12,103.94 86.12,110.68 130.02,85.34 			"/>
			<polygon class="st4" points="124.08,75.18 130.02,78.6 86.12,103.94 86.12,97.21 			"/>
		</g>
		<g>
			<polygon class="st2" points="80.37,107.26 36.47,132.6 36.47,139.34 80.37,114 			"/>
			<polygon class="st4" points="74.44,103.84 80.37,107.26 36.47,132.6 36.47,125.86 			"/>
		</g>
	</g>
</g>
<g id="Pictures">
	<g id="Picture_19_">
		<g id="Frame_12_">
			<polygon id="XMLID_1508_" class="st0" points="471.4,213.69 469.41,214.88 428.52,191.27 430.51,190.08 			"/>
			<g id="XMLID_1504_">
				<g id="XMLID_1505_">
					<g id="XMLID_1506_">
						<polygon id="XMLID_1507_" class="st5" points="430.51,190.08 469.41,212.53 469.41,107.16 430.51,84.72 						"/>
					</g>
				</g>
			</g>
			<path id="XMLID_1501_" class="st6" d="M424.76,193.44l48.41,27.95l0-116.4l-48.41-27.95L424.76,193.44z M428.52,83.55
				l40.89,23.61l0,107.71l-40.89-23.61L428.52,83.55z"/>
			<polygon id="XMLID_1500_" class="st3" points="428.52,191.27 430.51,190.08 430.51,84.72 428.52,83.55 			"/>
			<polygon id="XMLID_1499_" class="st0" points="424.75,77.04 426.78,75.88 475.19,103.83 473.17,104.99 			"/>
			<polygon id="XMLID_1498_" class="st3" points="475.19,103.83 473.17,104.99 473.17,221.39 475.19,220.23 			"/>
		</g>
		<g id="Land_16_">
			<polygon class="st6" points="433.43,187.75 466.49,206.84 466.49,110.68 433.43,91.59 			"/>
		</g>
		<g id="Land_15_">
			<polygon class="st6" points="433.43,187.75 466.49,206.84 466.49,110.68 433.43,91.59 			"/>
		</g>
		<path class="st0" d="M466.49,174.77c-1.57,0.12-3.16,0.08-4.73-0.04c-5.5-0.41-10.93-1.59-16.1-3.5c-4-1.48-8-3.39-12.23-3.51
			v20.03l4.48,2.59c1.78-1.58,3.84-2.8,6.14-3.41c6.37-1.68,12.91,1.53,19.45,2.28c0.99,0.11,2,0.15,3,0.15V174.77z"/>
		<path class="st0" d="M466.49,150.83c-7.4-2.19-14.99-4.01-20.27-9.44c-4.26-4.37-6.26-10.44-7.66-16.38
			c-1.4-5.94-2.36-12.07-5.05-17.55c-0.03-0.05-0.06-0.11-0.09-0.16v44.22c0.41,0.62,0.83,1.24,1.27,1.84
			c4.86,6.58,12.01,12.08,20.18,12.5c3.84,0.2,7.81-0.7,11.61-0.69V150.83z"/>
		<path class="st0" d="M466.49,128.83c-5.67-5-8.71-13.03-7.33-20.51c0.1-0.55,0.23-1.1,0.37-1.65l-12.72-7.34
			c0.05,0.84,0.09,1.67,0.11,2.51c0.13,4.86-0.03,9.77,1.04,14.51c1.81,7.95,7.25,14.99,14.49,18.73c1.29,0.67,2.64,1.23,4.02,1.68
			V128.83z"/>
	</g>
	<g id="Picture_20_">
		<g id="Frame_15_">
			<polygon id="XMLID_1497_" class="st0" points="408.55,159.14 406.55,160.33 365.66,136.72 367.65,135.53 			"/>
			<g id="XMLID_1493_">
				<g id="XMLID_1494_">
					<g id="XMLID_1495_">
						<polygon id="XMLID_1496_" class="st5" points="367.65,135.53 406.55,157.99 406.55,52.62 367.65,30.18 						"/>
					</g>
				</g>
			</g>
			<path id="XMLID_1490_" class="st6" d="M361.9,138.89l48.41,27.95l0-116.4L361.9,22.5L361.9,138.89z M365.66,29.01l40.89,23.61
				l0,107.71l-40.89-23.61L365.66,29.01z"/>
			<polygon id="XMLID_1485_" class="st3" points="365.66,136.72 367.65,135.53 367.65,30.18 365.66,29.01 			"/>
			<polygon id="XMLID_1471_" class="st0" points="361.9,22.5 363.92,21.34 412.34,49.29 410.31,50.45 			"/>
			<polygon id="XMLID_1444_" class="st3" points="412.34,49.29 410.31,50.45 410.31,166.85 412.34,165.69 			"/>
		</g>
		<g id="Land_20_">
			<polygon class="st6" points="370.57,133.21 403.63,152.3 403.63,56.14 370.57,37.05 			"/>
		</g>
		<g id="Land_19_">
			<polygon class="st6" points="370.57,133.21 403.63,152.3 403.63,56.14 370.57,37.05 			"/>
		</g>
		<path class="st0" d="M403.63,120.23c-1.57,0.12-3.16,0.08-4.73-0.04c-5.5-0.41-10.93-1.59-16.1-3.5c-4-1.48-8-3.39-12.23-3.51
			v20.03l4.48,2.59c1.78-1.58,3.84-2.8,6.14-3.41c6.37-1.68,12.91,1.53,19.45,2.28c0.99,0.11,2,0.15,3,0.15V120.23z"/>
		<path class="st0" d="M403.63,96.28c-7.4-2.19-14.99-4.01-20.27-9.44c-4.26-4.37-6.26-10.44-7.66-16.38
			c-1.4-5.94-2.36-12.07-5.05-17.55c-0.03-0.05-0.06-0.11-0.09-0.16v44.22c0.41,0.62,0.83,1.24,1.27,1.84
			c4.86,6.58,12.01,12.08,20.18,12.5c3.84,0.2,7.81-0.7,11.61-0.69V96.28z"/>
		<path class="st0" d="M403.63,74.28c-5.67-5-8.71-13.03-7.33-20.51c0.1-0.55,0.23-1.1,0.37-1.65l-12.72-7.34
			c0.05,0.84,0.09,1.67,0.11,2.51c0.13,4.86-0.03,9.78,1.04,14.51c1.81,7.95,7.25,14.99,14.49,18.73c1.29,0.67,2.64,1.23,4.02,1.68
			V74.28z"/>
	</g>
	<g id="Picture_18_">
		<g id="Frame_11_">
			<polygon id="XMLID_1468_" class="st0" points="163.09,164.7 165.08,165.89 205.91,142.32 203.92,141.13 			"/>
			<g id="XMLID_1464_">
				<g id="XMLID_1465_">
					<g id="XMLID_1466_">
						<polygon id="XMLID_1467_" class="st5" points="203.92,141.13 165.08,163.55 165.08,122.88 203.92,100.47 						"/>
					</g>
				</g>
			</g>
			<path id="XMLID_1460_" class="st6" d="M209.66,92.8l-48.33,27.91v51.68l48.33-27.91L209.66,92.8z M205.91,142.32l-40.82,23.57
				l0-43.01l40.82-23.57L205.91,142.32z"/>
			<polygon id="XMLID_1459_" class="st3" points="205.91,142.32 203.92,141.13 203.92,100.47 205.91,99.31 			"/>
			<polygon id="XMLID_1458_" class="st0" points="209.66,92.8 207.64,91.65 159.31,119.55 161.33,120.71 			"/>
			<polygon id="XMLID_1457_" class="st3" points="159.31,119.55 161.33,120.71 161.33,172.39 159.31,171.23 			"/>
		</g>
		<g id="Land_14_">
			<polygon class="st6" points="202.4,139.91 166.6,160.58 166.6,150.25 175.55,129.58 181.13,134.75 179.12,143.41 191.49,116.97 
				202.4,129.58 			"/>
			<path class="st6" d="M180.79,119.6c-1.46,0.84-2.65,2.9-2.65,4.59c0,1.69,1.19,2.37,2.65,1.53c1.46-0.84,2.65-2.9,2.65-4.59
				C183.44,119.44,182.25,118.75,180.79,119.6z"/>
		</g>
	</g>
	<g id="Picture_3_">
		<g id="Frame_5_">
			<polygon id="XMLID_1455_" class="st0" points="163.09,98.44 165.08,99.63 205.91,76.06 203.92,74.87 			"/>
			<g id="XMLID_1450_">
				<g id="XMLID_1451_">
					<g id="XMLID_1452_">
						<polygon id="XMLID_1453_" class="st5" points="203.92,74.87 165.08,97.29 165.08,56.62 203.92,34.22 						"/>
					</g>
				</g>
			</g>
			<path id="XMLID_1447_" class="st6" d="M209.66,26.55l-48.33,27.91l0,51.68l48.33-27.91L209.66,26.55z M205.91,76.06l-40.82,23.57
				l0-43.01l40.82-23.57L205.91,76.06z"/>
			<polygon id="XMLID_1446_" class="st3" points="205.91,76.06 203.92,74.87 203.92,34.22 205.91,33.05 			"/>
			<polygon id="XMLID_1445_" class="st0" points="209.66,26.55 207.64,25.39 159.31,53.3 161.33,54.45 			"/>
			<polygon id="XMLID_1443_" class="st3" points="159.31,53.3 161.33,54.45 161.33,106.13 159.31,104.97 			"/>
		</g>
		<g id="Land_12_">
			<polygon class="st6" points="202.4,73.66 166.6,94.33 166.6,83.99 175.55,63.32 181.13,68.49 179.12,77.15 191.49,50.71 
				202.4,63.32 			"/>
			<path class="st6" d="M180.79,53.34c-1.46,0.84-2.65,2.9-2.65,4.59c0,1.69,1.19,2.37,2.65,1.53c1.46-0.84,2.65-2.9,2.65-4.59
				C183.44,53.18,182.25,52.5,180.79,53.34z"/>
		</g>
	</g>
</g>
<g id="Shadows">
	<path id="Shadow_44_" class="st1" d="M338.32,288.88c-27.48,15.87-27.48,41.59,0,57.46c27.48,15.87,72.04,15.87,99.52,0
		c27.48-15.87,27.48-41.59,0-57.46C410.36,273.01,365.8,273.01,338.32,288.88z"/>
	<path id="Shadow_6_" class="st1" d="M53.76,424.52c-12.85,7.42-12.85,19.44,0,26.86c12.85,7.42,33.67,7.42,46.52,0
		c12.85-7.42,12.85-19.44,0-26.86C87.43,417.11,66.61,417.11,53.76,424.52z"/>
	<path id="Shadow_45_" class="st1" d="M219.46,478.1L78.42,396.78c-2.19-1.26-2.19-3.31,0-4.58l151.41-87.25
		c2.19-1.26,5.74-1.26,7.93,0l141.04,81.33c2.19,1.26,2.19,3.31,0,4.58L227.39,478.1C225.2,479.37,221.65,479.37,219.46,478.1z"/>
</g>
<g id="Table">
	<g id="Table_1_">
		<g id="Table_2_">
			<path class="st7" d="M390.22,268.13c-1.18-0.68-3.1-0.68-4.28,0c-0.59,0.34-0.89,0.79-0.89,1.24l0.89,76.42h0
				c0.01,0.31,0.21,0.62,0.62,0.85c0.84,0.48,2.19,0.48,3.03,0c0.41-0.24,0.61-0.54,0.62-0.85h0l0.89-76.42
				C391.11,268.92,390.82,268.47,390.22,268.13z M346.25,262.73c-1.28-0.68-3.19-0.68-4.28,0c-0.54,0.34-0.78,0.79-0.71,1.24
				l-5.92,64.36h0c0.05,0.31,0.3,0.62,0.74,0.85c0.9,0.48,2.26,0.48,3.03,0c0.38-0.24,0.54-0.54,0.5-0.85h0l7.69-64.36
				C347.25,263.52,346.89,263.07,346.25,262.73z M433.99,263.96c0.06-0.45-0.17-0.9-0.71-1.24c-1.09-0.68-3-0.68-4.28,0
				c-0.64,0.34-1,0.79-1.06,1.24l7.69,64.36h0c-0.03,0.31,0.13,0.62,0.5,0.85c0.77,0.48,2.12,0.48,3.03,0
				c0.44-0.24,0.69-0.54,0.74-0.85h0L433.99,263.96z"/>
			<g>
				<path class="st8" d="M455.89,240.08h-0.06c0.01-10.02-6.56-20.04-19.8-27.68c-26.48-15.29-69.41-15.29-95.89,0
					c-13.24,7.64-19.81,17.66-19.8,27.68h-0.06v5.38l0,0c0.16,9.89,6.79,19.75,19.86,27.29c26.48,15.29,69.41,15.29,95.89,0
					c13.07-7.55,19.7-17.4,19.86-27.29l0,0V240.08z"/>
				<path class="st9" d="M455.89,240.08h-0.06c0.01-10.02-6.56-20.04-19.8-27.68c-26.48-15.29-69.41-15.29-95.89,0
					c-13.24,7.64-19.81,17.66-19.8,27.68h-0.06v5.38l0,0c0.16,9.89,6.79,19.75,19.86,27.29c26.48,15.29,69.41,15.29,95.89,0
					c13.07-7.55,19.7-17.4,19.86-27.29l0,0V240.08z"/>
				<path id="XMLID_1456_" class="st8" d="M340.14,212.4c-26.48,15.29-26.48,40.07,0,55.36c26.48,15.29,69.41,15.29,95.89,0
					c26.48-15.29,26.48-40.07,0-55.36C409.55,197.11,366.62,197.11,340.14,212.4z"/>
				<path id="XMLID_1454_" class="st10" d="M340.14,212.4c-26.48,15.29-26.48,40.07,0,55.36c26.48,15.29,69.41,15.29,95.89,0
					c26.48-15.29,26.48-40.07,0-55.36C409.55,197.11,366.62,197.11,340.14,212.4z"/>
			</g>
		</g>
	</g>
</g>
<g id="Fan_1_">
	<path id="Shadow" class="st11" d="M371.54,249.97c-7.5-4.33-11.25-10-11.25-15.68c0-5.67,3.75-11.35,11.25-15.68
		c15-8.66,39.31-8.66,54.31,0c7.5,4.33,11.25,10,11.25,15.68c0,5.67-3.75,11.35-11.25,15.68
		C410.85,258.63,386.54,258.63,371.54,249.97z"/>
	<g id="Fan">
		<path class="st12" d="M430.74,227.89c0-5.2-3.44-10.41-10.32-14.38c-13.76-7.94-36.06-7.94-49.82,0
			c-6.88,3.97-10.32,9.18-10.32,14.38c0,0.8,0,3.99,0,4.79c0,5.2,3.44,10.41,10.32,14.38c13.76,7.94,36.06,7.94,49.82,0
			c6.88-3.97,10.32-9.18,10.32-14.38C430.74,231.88,430.74,228.69,430.74,227.89z"/>
		<path class="st7" d="M370.61,242.27c-6.88-3.97-10.32-9.18-10.32-14.38c0-5.2,3.44-10.41,10.32-14.38
			c13.76-7.94,36.06-7.94,49.82,0c6.88,3.97,10.32,9.18,10.32,14.38c0,5.2-3.44,10.41-10.32,14.38
			C406.67,250.21,384.37,250.21,370.61,242.27z"/>
		<path class="st2" d="M418.57,218.07c-6.1-5.51-14.19-8.87-23.06-8.87c-8.88,0-16.96,3.36-23.07,8.88
			c-0.01,0.01-0.02,0.02-0.03,0.02c0,0,0,0-0.01,0.01h0c-3.02,2.65-4.54,5.71-4.54,8.76c0,4.08,2.7,8.17,8.09,11.28
			c10.79,6.23,28.29,6.23,39.08,0c5.4-3.12,8.09-7.2,8.09-11.28C423.15,223.8,421.62,220.73,418.57,218.07z"/>
		<g>
			<g>
				<path class="st13" d="M378.61,228.47c0-0.33-0.19-0.54-0.58-0.57c-0.77-0.06-2.03,0.66-2.8,1.6c-0.39,0.47-0.58,0.91-0.58,1.24
					c0,0.05,0,2.56,0,2.61c0,0.33,0.19,0.54,0.58,0.57c0.77,0.06,2.03-0.66,2.8-1.6c0.39-0.47,0.58-0.91,0.58-1.24
					C378.61,231.03,378.61,228.52,378.61,228.47z"/>
				<path class="st14" d="M378.61,228.47c0-0.33-0.19-0.54-0.58-0.57c-0.77-0.06-2.03,0.66-2.8,1.6c-0.39,0.47-0.58,0.91-0.58,1.24
					c0,0.05,0,2.56,0,2.61c0,0.33,0.19,0.54,0.58,0.57c0.77,0.06,2.03-0.66,2.8-1.6c0.39-0.47,0.58-0.91,0.58-1.24
					C378.61,231.03,378.61,228.52,378.61,228.47z"/>
				<path class="st13" d="M375.23,231.31c-0.39-0.03-0.58-0.25-0.58-0.57s0.19-0.77,0.58-1.24c0.77-0.94,2.03-1.66,2.8-1.6
					c0.39,0.03,0.58,0.25,0.58,0.57c0,0.33-0.19,0.77-0.58,1.24C377.26,230.65,376,231.37,375.23,231.31z"/>
			</g>
			<g>
				<path class="st13" d="M382.92,230.96c0-0.33-0.19-0.54-0.58-0.57c-0.77-0.06-2.03,0.66-2.8,1.6c-0.39,0.47-0.58,0.91-0.58,1.24
					c0,0.05,0,2.56,0,2.61c0,0.33,0.19,0.54,0.58,0.57c0.77,0.06,2.03-0.66,2.8-1.6c0.39-0.47,0.58-0.91,0.58-1.24
					C382.92,233.51,382.92,231.01,382.92,230.96z"/>
				<path class="st14" d="M382.92,230.96c0-0.33-0.19-0.54-0.58-0.57c-0.77-0.06-2.03,0.66-2.8,1.6c-0.39,0.47-0.58,0.91-0.58,1.24
					c0,0.05,0,2.56,0,2.61c0,0.33,0.19,0.54,0.58,0.57c0.77,0.06,2.03-0.66,2.8-1.6c0.39-0.47,0.58-0.91,0.58-1.24
					C382.92,233.51,382.92,231.01,382.92,230.96z"/>
				<path class="st13" d="M379.54,233.79c-0.39-0.03-0.58-0.25-0.58-0.57c0-0.33,0.19-0.77,0.58-1.24c0.77-0.94,2.03-1.66,2.8-1.6
					c0.39,0.03,0.58,0.25,0.58,0.57s-0.19,0.77-0.58,1.24C381.57,233.14,380.31,233.85,379.54,233.79z"/>
			</g>
			<g>
				<path class="st13" d="M387.23,233.44c0-0.33-0.19-0.54-0.58-0.57c-0.77-0.06-2.03,0.66-2.8,1.6c-0.39,0.47-0.58,0.91-0.58,1.24
					c0,0.05,0,2.56,0,2.61c0,0.33,0.19,0.54,0.58,0.57c0.77,0.06,2.03-0.66,2.8-1.6c0.39-0.47,0.58-0.91,0.58-1.24
					C387.23,236,387.23,233.49,387.23,233.44z"/>
				<path class="st14" d="M387.23,233.44c0-0.33-0.19-0.54-0.58-0.57c-0.77-0.06-2.03,0.66-2.8,1.6c-0.39,0.47-0.58,0.91-0.58,1.24
					c0,0.05,0,2.56,0,2.61c0,0.33,0.19,0.54,0.58,0.57c0.77,0.06,2.03-0.66,2.8-1.6c0.39-0.47,0.58-0.91,0.58-1.24
					C387.23,236,387.23,233.49,387.23,233.44z"/>
				<path class="st13" d="M383.85,236.28c-0.39-0.03-0.58-0.25-0.58-0.57c0-0.33,0.19-0.77,0.58-1.24c0.77-0.94,2.03-1.66,2.8-1.6
					c0.39,0.03,0.58,0.25,0.58,0.57s-0.19,0.77-0.58,1.24C385.88,235.62,384.62,236.34,383.85,236.28z"/>
			</g>
		</g>
		<g>
			<path class="st0" d="M406.56,215.12c-0.22-0.13-0.44-0.24-0.67-0.37l0,0c-2.35-1.17-4.23-4.07-4.23-9.47c0-5.4,0-66.83,0-66.83
				h-12.29c0,0,0,61.43,0,66.83c0,5.4-1.88,8.3-4.23,9.47l0,0c-0.23,0.12-0.45,0.24-0.67,0.37c-6.1,3.52-6.1,9.23,0,12.75
				c6.1,3.52,15.99,3.52,22.09,0C412.66,224.35,412.66,218.64,406.56,215.12z"/>
			<g>
				<path class="st3" d="M406.56,227.87c1.64-1.07,3.17-2.46,3.88-4.25c0.34-0.89,0.49-1.84,0.33-2.76
					c-0.14-0.92-0.55-1.79-1.1-2.55c-0.57-0.75-1.27-1.41-2.04-1.96c-0.38-0.28-0.8-0.53-1.21-0.77c-0.41-0.24-0.84-0.44-1.31-0.72
					c-1.84-1.14-2.92-3.13-3.45-5.1c-0.55-1.98-0.57-4.08-0.54-6.02l0.02-5.93l0.03-11.87c0-7.91,0.09-15.82,0.16-23.74
					c0.06-7.91,0.18-15.82,0.33-23.74c0.14,7.91,0.27,15.82,0.32,23.74c0.07,7.91,0.15,15.82,0.16,23.74l0.03,11.87l0.02,5.93
					c-0.01,2-0.01,3.9,0.47,5.76c0.46,1.82,1.4,3.57,2.96,4.56c1.68,0.88,3.52,2.09,4.67,3.82c0.58,0.86,1,1.85,1.1,2.9
					c0.13,1.04-0.08,2.11-0.53,3.03C409.96,225.66,408.31,226.97,406.56,227.87z"/>
			</g>
		</g>
		<g>
			<g>
				<path id="XMLID_1437_" class="st12" d="M419.09,122.86c7.01,12.18-22.77,34.46-22.77,34.46l-18.46-32.07
					C377.85,125.25,412.08,110.69,419.09,122.86"/>
				<path class="st7" d="M416.59,120.21c-0.23,3-4.06,7.48-8.33,10.99c-5.57,4.58-16.81,11.16-16.81,11.16l-5.79-3.53l-7.81-13.57
					C377.85,125.25,405.97,113.26,416.59,120.21z"/>
				<g id="XMLID_1434_">
					<path id="XMLID_1436_" class="st15" d="M387.06,156.39c-7.22-4.18-13.06-14.33-13.05-22.68c0.01-8.34,5.87-11.72,13.09-7.54
						c7.22,4.18,13.07,14.33,13.05,22.68C400.15,157.2,394.28,160.57,387.06,156.39z"/>
				</g>
				<g id="XMLID_267_">
					<path id="XMLID_1433_" class="st12" d="M382.4,131.69l-3.92,2.25l1.75,3.04c0.18,4.58,3.26,9.93,7.13,12.38l1.75,3.04
						l3.93-2.26l0,0c1.36-0.79,2.2-2.47,2.21-4.87c0.01-4.8-3.36-10.64-7.51-13.05C385.65,131.02,383.77,130.9,382.4,131.69z"/>
					<path id="XMLID_1432_" class="st7" d="M376.27,138.82c0,4.8,3.36,10.65,7.51,13.05c4.15,2.41,7.53,0.46,7.53-4.34
						c0.01-4.8-3.36-10.64-7.51-13.05C379.65,132.08,376.28,134.02,376.27,138.82z"/>
					<path id="XMLID_1430_" class="st15" d="M380.06,141.01c0,2.38,1.67,5.29,3.73,6.48s3.74,0.23,3.74-2.15
						c0-2.38-1.67-5.28-3.73-6.48C381.74,137.67,380.07,138.63,380.06,141.01z"/>
				</g>
			</g>
			<g>
				<g class="st16">
					<g>
						<path class="st17" d="M380.97,133.28c10.76-0.81,4.15-13.59-0.83-24.1c-5.11-10.8-0.22-15.45,5.94-11.95
							c10.93,6.21,28.66,28.22,28.66,49.21c0,10.29-4.66,13.01-8.83,12.88c-3.24-0.1-9.61-2.14-17.93-9.41L380.97,133.28z"/>
						<path class="st14" d="M392.45,124.22c-3.3-7.43-12.02-11.55-14.37-21.65c0.2,1.84,0.85,4.05,2.06,6.6
							c4.97,10.51,11.59,23.29,0.83,24.1l7.01,16.63c1.83,1.6,3.56,2.94,5.19,4.07c3.25-5.25-0.21-16.43-0.21-16.43
							S395.75,131.65,392.45,124.22z"/>
						<path class="st9" d="M384.9,102.4c3.21,1.25,6.23,3.5,9.08,6.17c2.86,2.68,5.54,5.89,8.04,9.49
							c2.47,3.65,4.77,7.73,6.62,12.49c0.93,2.37,1.73,4.93,2.32,7.68c0.56,2.76,0.91,5.76,0.76,8.78
							c-0.39-5.91-2.12-10.75-4.05-15.08c-0.99-2.15-2.04-4.21-3.17-6.14c-1.12-1.95-2.29-3.81-3.51-5.56
							c-2.42-3.56-5-6.8-7.67-9.81C390.63,107.46,387.85,104.72,384.9,102.4z"/>
					</g>
					<g>
						<path class="st17" d="M385.71,159.81c-0.82,15.47,8.31,17.58,15.76,19.96c7.65,2.44,10.06,13.22,7.02,18.61
							c-5.4,9.56-21.91,14.6-35.55-3.77c-6.68-9-7.87-17.77-7.26-23.37c0.47-4.36,2.59-11.31,8.35-16.35L385.71,159.81z"/>
						<path class="st14" d="M385.71,159.81l-11.68-4.93c-2.5,2.18-4.31,4.73-5.6,7.26c3.69,5.03,8.14,7.71,11.58,7.91
							c1.73,6.07,4.71,13.61,13.59,13.63c8.88,0.02,12.64,0.95,14.84,5.33c1.67,3.32,1.22,6.62,0.23,8.94
							c2.71-5.5,0.25-15.81-7.21-18.19C394.02,177.39,384.89,175.28,385.71,159.81z"/>
						<path class="st9" d="M406.48,194.73c-0.32,0.64-0.67,1.23-1.06,1.76c-0.4,0.48-0.79,1.01-1.2,1.44
							c-0.42,0.41-0.84,0.85-1.28,1.2l-1.32,1.01c-1.79,1.17-3.65,1.88-5.5,2.29c-3.71,0.71-7.41,0.16-10.86-1.59
							c-3.45-1.76-6.67-4.56-9.47-8.27c-1.43-1.79-2.74-3.87-3.9-6.19c-1.14-2.35-2.15-4.98-2.68-7.99c0.84,2.71,1.98,4.99,3.24,7
							c1.25,2.02,2.63,3.81,4.08,5.39c2.86,3.24,5.97,5.81,9.28,7.45c3.29,1.73,6.8,2.36,10.34,2.1c1.77-0.21,3.56-0.61,5.32-1.45
							C403.2,198.01,404.97,196.86,406.48,194.73z"/>
					</g>
					<g>
						<path class="st17" d="M367.88,143.09c-9.95-14.66-12.46-3.99-14.93,4.15c-2.54,8.36-9.84,2.23-12.96-6.65
							c-5.53-15.76-6.75-42.82,6.89-45.44c6.68-1.29,12.53,4.76,16.09,10.5c2.77,4.46,7.02,13.45,9.58,25.76L367.88,143.09z"/>
						<path class="st14" d="M370.69,123.92c-2.34-0.75-4.77,2.45-5.67,5.31c-2.84-0.8-5.18-2.21-8.53,3.34
							c-3.35,5.55-2.96,10.53-5.17,15.56c-1.18,2.7-3.34,2.96-4.71,2.19c2.56,1.66,5.06,1.14,6.34-3.08
							c2.47-8.13,4.98-18.8,14.93-4.15l4.66-11.69C371.99,128.74,371.36,126.25,370.69,123.92z"/>
						<path class="st9" d="M350.11,145.56c-0.33,0.39-0.75,0.41-1.11,0.37c-0.38-0.04-0.74-0.17-1.09-0.33
							c-0.71-0.33-1.38-0.85-2.02-1.45c-1.27-1.22-2.4-2.91-3.32-4.94c-1.75-4.13-2.93-8.9-3.63-14.02
							c-0.64-5.1-0.88-10.73,0.29-16.23c0.31-1.35,0.71-2.69,1.27-3.84c0.55-1.15,1.22-2.11,1.93-2.8c1.45-1.37,2.99-1.82,4.46-1.82
							c-1.46,0.59-2.93,1.41-4.12,2.93c-1.21,1.48-2.02,3.66-2.43,6.05c-0.4,2.41-0.55,4.94-0.49,7.43c0.05,2.5,0.25,4.98,0.58,7.38
							c0.3,2.42,0.74,4.77,1.27,7.04c0.51,2.27,1.16,4.49,1.86,6.5c0.76,1.95,1.68,3.74,2.78,5.16c0.54,0.73,1.13,1.37,1.75,1.89
							c0.31,0.25,0.64,0.48,0.98,0.63C349.39,145.69,349.75,145.82,350.11,145.56z"/>
						<g>
							<polygon class="st14" points="346.11,149.97 346.11,149.97 346.12,149.97 							"/>
						</g>
					</g>
				</g>
				<g class="st14">
					<g>
						<path class="st17" d="M374.86,131.65c6.68-9.4-2.4-18-9.57-25.44c-7.37-7.64-5.94-16.55-0.62-17.64
							c9.43-1.93,29.19,7.86,37.07,30.59c3.86,11.14,1.85,17.77-0.91,20.93c-2.15,2.46-7.04,5.3-15.17,4.01L374.86,131.65z"/>
						<path class="st14" d="M378.93,112.76c-4.93-5.43-12.14-2.99-17.45-12.06c0.82,1.83,2.07,3.71,3.81,5.52
							c7.17,7.44,16.26,16.03,9.57,25.44l10.79,12.45c1.79,0.28,3.41,0.36,4.9,0.29c0.14-8.25-6.3-17.62-6.3-17.62
							S383.86,118.19,378.93,112.76z"/>
						<path class="st9" d="M365.84,95.13c2.55-1.19,5.36-1.14,8.21-0.51c2.86,0.64,5.8,1.99,8.78,3.92c2.98,1.99,6,4.59,8.99,8.28
							c1.49,1.83,2.97,3.97,4.38,6.48c1.4,2.54,2.75,5.51,3.79,8.9c-2.47-6.1-5.41-9.96-8.29-13.12c-1.45-1.54-2.91-2.95-4.36-4.13
							c-1.46-1.23-2.91-2.31-4.37-3.24c-2.91-1.94-5.8-3.4-8.66-4.54C371.45,96.06,368.62,95.3,365.84,95.13z"/>
					</g>
					<g>
						<path class="st17" d="M387.89,156.63c5.27,17.39,11.99,12.45,17.72,9.13c5.88-3.41,11.49,6.34,11.54,14.58
							c0.08,14.62-8.75,33.15-24.5,24.06c-7.72-4.46-11.77-13.01-13.48-19.55c-1.33-5.09-2.56-14.29-0.71-24.31L387.89,156.63z"/>
						<path class="st14" d="M387.89,156.63l-9.43,3.9c-0.8,4.34-1.03,8.53-0.91,12.29c4.28,2.52,8.18,1.9,10.49-0.61
							c3.4,5.21,8.17,11,13.94,4c5.77-7,8.56-8.98,11.64-5.98c2.33,2.27,3.28,6.19,3.5,9.5c-0.3-8.1-5.77-17.32-11.51-13.98
							C399.88,169.08,393.16,174.02,387.89,156.63z"/>
						<path class="st9" d="M414.48,177.99c0.04,0.95,0.02,1.87-0.03,2.74c-0.08,0.83-0.13,1.72-0.24,2.51
							c-0.12,0.77-0.23,1.58-0.38,2.32l-0.48,2.14c-0.73,2.69-1.66,4.92-2.71,6.83c-2.14,3.71-4.75,6.04-7.65,6.88
							c-2.9,0.83-6.04,0.34-9.25-1.46c-1.6-0.81-3.23-2.02-4.85-3.62c-1.62-1.64-3.26-3.69-4.73-6.52c1.56,2.26,3.16,3.84,4.73,5.02
							c1.57,1.2,3.13,2.04,4.67,2.61c3.07,1.24,6.06,1.56,8.82,0.71c2.79-0.74,5.3-2.83,7.51-5.91c1.07-1.63,2.08-3.48,2.91-5.77
							C413.58,184.14,414.3,181.48,414.48,177.99z"/>
					</g>
					<g>
						<path class="st17" d="M370.04,152.64c-11.96-7.99-9.59,5.54-8.14,16.31c1.48,11.06-5.56,10.21-10.91,3.06
							c-9.5-12.68-20.44-41.01-12.57-54.65c3.86-6.68,9.92-4.76,14.39-1.37c3.47,2.63,9.6,9,15.88,20.31L370.04,152.64z"/>
						<path class="st14" d="M364.67,129.67c-1.8,1.04-2.18,6.44-1.7,10.24c-2.14,1.37-4.19,1.7-4.29,10.37
							c-0.1,8.66,2.03,13.74,2.48,20.94c0.24,3.86-1.06,5.84-2.24,6.1c2.29-0.23,3.71-2.78,2.96-8.36
							c-1.44-10.76-3.81-24.3,8.14-16.31l-1.36-16.35C367.33,133.85,365.99,131.66,364.67,129.67z"/>
						<path class="st9" d="M359.42,169.39c-0.07,0.69-0.33,1.04-0.58,1.29c-0.26,0.26-0.54,0.4-0.83,0.51
							c-0.59,0.21-1.21,0.17-1.86,0.03c-1.29-0.32-2.65-1.26-4.01-2.72c-2.69-3.09-5.24-7.31-7.62-12.3
							c-2.33-5.02-4.6-10.91-5.9-17.79c-0.31-1.7-0.54-3.47-0.62-5.15c-0.07-1.68,0-3.25,0.21-4.57c0.43-2.62,1.26-4.34,2.22-5.5
							c-0.73,1.79-1.37,3.85-1.58,6.44c-0.23,2.56,0.06,5.56,0.69,8.48c0.64,2.92,1.49,5.78,2.47,8.44
							c0.97,2.67,2.03,5.19,3.14,7.54c1.11,2.38,2.27,4.57,3.47,6.61c1.18,2.05,2.44,3.95,3.65,5.57c1.22,1.51,2.49,2.72,3.74,3.38
							c0.63,0.36,1.25,0.58,1.85,0.65c0.3,0.02,0.6,0.02,0.87-0.09C359.01,170.1,359.29,169.96,359.42,169.39z"/>
						<g>
							<polygon class="st14" points="358.48,177.32 358.48,177.32 358.49,177.32 							"/>
						</g>
					</g>
				</g>
				<g class="st18">
					<g>
						<path class="st17" d="M370.29,134.73c0.82-15.47-8.31-17.58-15.76-19.96c-7.65-2.44-10.06-13.22-7.02-18.61
							c5.4-9.56,21.91-14.6,35.55,3.77c6.68,9,7.87,17.77,7.26,23.37c-0.47,4.36-2.59,11.31-8.35,16.35L370.29,134.73z"/>
						<path class="st14" d="M365.84,111.06c-5.24-1.98-9.01,6.37-15.86,0.76c1.22,1.33,2.74,2.38,4.55,2.96
							c7.45,2.38,16.57,4.49,15.76,19.96l11.68,4.93c1.27-1.11,2.35-2.31,3.29-3.56c-3-9.05-10.7-14.09-10.7-14.09
							S371.08,113.05,365.84,111.06z"/>
						<path class="st9" d="M350.73,102.34c1.21-3.31,3.05-5.47,5.15-7.05c2.1-1.57,4.52-2.44,7.17-2.71
							c2.68-0.2,5.62,0.22,8.94,1.84c1.66,0.8,3.42,1.95,5.28,3.54c1.86,1.65,3.85,3.79,5.8,6.64c-3.89-4.64-7.25-6.5-10.3-7.64
							c-1.52-0.52-2.99-0.89-4.38-1.02c-1.41-0.18-2.76-0.2-4.05-0.05c-2.62,0.2-5.04,0.91-7.33,1.94
							C354.73,98.9,352.6,100.32,350.73,102.34z"/>
					</g>
					<g>
						<path class="st17" d="M388.12,151.46c9.95,14.66,12.46,3.99,14.93-4.15c2.54-8.36,9.84-2.23,12.96,6.65
							c5.53,15.76,6.75,42.82-6.89,45.44c-6.68,1.29-12.53-4.76-16.09-10.5c-2.77-4.46-7.02-13.45-9.58-25.76L388.12,151.46z"/>
						<path class="st14" d="M388.12,151.46l-4.66,11.69c1.11,5.34,2.53,10.04,4.02,14.03c3.73-0.66,6.02-4.42,6.59-8.96
							c4.16,2.95,9.43,5.44,10.55-6.71c1.12-12.15,2.19-16.5,5.32-15.69c2.37,0.62,4.45,4.11,5.84,7.51
							c-3.23-8.53-10.24-14.18-12.72-6.03C400.57,155.45,398.06,166.11,388.12,151.46z"/>
						<path class="st9" d="M413.39,153.54c0.38,1,0.72,2,1.01,2.99c0.26,0.96,0.56,1.96,0.79,2.91c0.21,0.93,0.44,1.89,0.62,2.8
							l0.49,2.7c0.54,3.48,0.77,6.65,0.8,9.54c0,5.7-0.82,10.31-2.39,13.5c-1.57,3.19-3.8,5.15-6.56,5.74
							c-1.34,0.39-2.86,0.37-4.51-0.08c-1.67-0.49-3.5-1.41-5.52-3.31c1.86,1.21,3.49,1.65,4.95,1.69c1.47,0.05,2.8-0.27,4.01-0.87
							c2.46-1.09,4.52-3.11,6-6.21c1.53-3,2.38-7.26,2.66-12.34c0.08-2.62,0.05-5.41-0.27-8.56
							C415.12,160.9,414.59,157.46,413.39,153.54z"/>
					</g>
					<g>
						<path class="st17" d="M375.03,161.27c-10.76,0.81-4.15,13.59,0.83,24.1c5.11,10.8,0.22,15.45-5.94,11.95
							c-10.93-6.21-28.66-28.22-28.66-49.21c0-10.29,4.66-13.01,8.83-12.88c3.24,0.1,9.61,2.14,17.93,9.41L375.03,161.27z"/>
						<path class="st14" d="M362.93,140.65c-0.78,2.55,1,8.69,2.74,12.42c-0.88,3.18-2.08,5.16,1.1,14.62
							c3.19,9.46,6.47,13.27,9.46,20.7c1.6,3.98,1.5,7.16,0.83,8.37c1.4-2.06,1.37-5.94-1.21-11.4
							c-4.97-10.51-11.59-23.29-0.83-24.1l-7.01-16.63C366.22,143.08,364.53,141.77,362.93,140.65z"/>
						<path class="st9" d="M374.41,187.81c0.21,0.8,0.17,1.38,0.1,1.85c-0.07,0.48-0.2,0.86-0.35,1.22c-0.3,0.69-0.73,1.14-1.2,1.5
							c-0.95,0.68-2.19,0.74-3.62,0.23c-2.9-1.22-6.14-3.77-9.56-7.28c-3.4-3.59-7.08-8.17-10.5-14.59
							c-0.84-1.6-1.66-3.33-2.33-5.09c-0.68-1.76-1.22-3.51-1.58-5.11c-0.71-3.18-0.81-5.7-0.62-7.71c0.2,2.52,0.55,5.25,1.39,8.22
							c0.81,2.95,2.13,5.97,3.63,8.63c1.51,2.66,3.14,5.08,4.77,7.18c1.63,2.12,3.26,4.02,4.87,5.67c1.61,1.7,3.19,3.15,4.73,4.42
							c1.54,1.28,3.06,2.34,4.46,3.14c1.36,0.67,2.64,0.97,3.7,0.7c0.54-0.11,1.03-0.35,1.44-0.75c0.2-0.21,0.39-0.45,0.53-0.79
							C374.41,188.91,374.54,188.53,374.41,187.81z"/>
						<g>
							<polygon class="st14" points="376.78,197.14 376.78,197.14 376.78,197.14 							"/>
						</g>
					</g>
				</g>
			</g>
			<g>
				<g>
					<path class="st19" d="M386.98,139.16c11.96,7.99,9.59-5.54,8.14-16.31c-1.48-11.06,5.56-10.21,10.91-3.06
						c9.5,12.68,20.44,41.01,12.57,54.65c-3.86,6.68-9.92,4.76-14.39,1.37c-3.47-2.63-9.6-9-15.88-20.31L386.98,139.16z"/>
					<path class="st14" d="M400.73,137.66c-0.78-7.44-6.61-12.31-5.36-20.73c-0.47,1.36-0.6,3.3-0.25,5.92
						c1.44,10.76,3.81,24.3-8.14,16.31l1.36,16.35c1.38,2.49,2.75,4.73,4.1,6.75c5.49-0.84,3.4-15.48,3.4-15.48
						S401.51,145.1,400.73,137.66z"/>
					<path class="st9" d="M402.8,122.22c3.01,3.35,5.43,7.21,7.52,11.2c2.09,4,3.79,8.21,5.14,12.53c1.31,4.33,2.27,8.8,2.49,13.36
						c0.11,2.27,0.02,4.57-0.37,6.82c-0.43,2.24-1.18,4.46-2.47,6.3c1.8-4.15,1.74-8.66,1.27-13c-0.27-2.18-0.63-4.35-1.13-6.5
						c-0.48-2.15-1.05-4.29-1.71-6.39c-1.28-4.23-2.86-8.37-4.63-12.44C407.11,130.04,405.13,126.06,402.8,122.22z"/>
				</g>
				<g>
					<path class="st19" d="M382.15,160.15c-6.68,9.4,2.4,18,9.57,25.44c7.37,7.64,5.94,16.55,0.62,17.64
						c-9.43,1.93-29.19-7.86-37.07-30.59c-3.86-11.14-1.85-17.77,0.91-20.93c2.15-2.46,7.04-5.3,15.18-4.01L382.15,160.15z"/>
					<path class="st14" d="M382.15,160.15l-10.79-12.45c-3.52-0.56-6.44-0.34-8.78,0.28c2.11,6.19,5.92,11.45,9.57,14.31
						c-0.41,5.31,0,12.57,9.6,19.62c9.6,7.04,13.32,10.62,14.07,15.21c0.56,3.48-1.16,5.27-3.1,5.99c5-1.43,6.2-10.07-0.99-17.53
						C384.56,178.15,375.47,169.55,382.15,160.15z"/>
					<path class="st9" d="M391.54,199.27c-0.58,0.17-1.19,0.27-1.8,0.3c-0.61-0.01-1.23,0.03-1.84-0.02
						c-0.61-0.07-1.23-0.12-1.83-0.23l-1.81-0.39c-2.38-0.66-4.65-1.66-6.81-2.87c-4.28-2.47-8.09-5.76-11.16-9.63
						c-3.07-3.87-5.5-8.24-7.15-12.87c-0.87-2.29-1.51-4.68-1.89-7.11c-0.35-2.42-0.46-4.93,0.09-7.31
						c-0.1,2.43,0.27,4.81,0.88,7.11c0.6,2.31,1.42,4.55,2.39,6.73c1.88,4.37,4.29,8.5,7.25,12.18c2.92,3.73,6.48,6.92,10.41,9.55
						c2,1.26,4.08,2.42,6.3,3.27C386.77,198.81,389.12,199.46,391.54,199.27z"/>
				</g>
				<g>
					<path class="st19" d="M369.13,135.17c-5.27-17.39-11.99-12.45-17.72-9.13c-5.88,3.41-11.49-6.34-11.54-14.58
						c-0.08-14.62,8.75-33.15,24.5-24.06c7.72,4.46,11.77,13.01,13.48,19.55c1.33,5.09,2.56,14.29,0.71,24.31L369.13,135.17z"/>
					<path class="st14" d="M379.35,124.94c-2.25-2.34-6.09-2.18-8.13-1.05c-2.77-2.77-4.77-5.54-10.49-4.59
						c-5.71,0.95-7.15,4.5-11.43,6.02c-2.29,0.81-4.72-0.72-5.92-2.3c2.15,3.1,5.05,4.74,8.02,3.02c5.73-3.32,12.45-8.27,17.72,9.13
						l9.43-3.9C378.96,129.11,379.21,126.99,379.35,124.94z"/>
					<path class="st9" d="M348.96,122.71c-0.5-0.01-0.96-0.32-1.34-0.64c-0.39-0.32-0.73-0.7-1.06-1.08
						c-0.65-0.78-1.17-1.64-1.64-2.54c-0.92-1.8-1.5-3.79-1.74-5.83c-0.34-4.07,0.17-8.1,1.32-11.98c1.22-3.82,3.07-7.67,6.39-10.31
						c0.84-0.64,1.78-1.18,2.81-1.49c1.03-0.31,2.11-0.4,3.15-0.29c2.08,0.26,3.92,1.19,5.51,2.35c-1.8-0.78-3.7-1.4-5.56-1.36
						c-1.86,0-3.56,0.78-4.9,2.01c-1.34,1.25-2.45,2.77-3.32,4.44c-0.89,1.66-1.6,3.43-2.14,5.25c-0.58,1.81-0.98,3.69-1.26,5.58
						c-0.3,1.88-0.43,3.83-0.42,5.7c0.09,1.87,0.41,3.76,1.08,5.55c0.31,0.9,0.71,1.78,1.19,2.61c0.25,0.41,0.51,0.82,0.82,1.18
						C348.13,122.22,348.47,122.6,348.96,122.71z"/>
					<g>
						<polygon class="st14" points="342.98,122.41 342.98,122.41 342.98,122.42 						"/>
					</g>
				</g>
			</g>
			<g>
				<path class="st12" d="M366.41,129.51c-2.55,1.47-4.13,4.63-4.13,9.13c0,9,6.32,19.93,14.11,24.43c3.9,2.25,7.42,2.46,9.97,0.99
					c0.39-0.23,3.2-1.83,3.6-2.06c2.55-1.47,4.13-4.63,4.13-9.13c0-9-6.32-19.93-14.11-24.43c-3.9-2.25-7.42-2.46-9.97-0.99
					C369.62,127.68,366.8,129.29,366.41,129.51z"/>
				<path class="st7" d="M390.49,154.93c0,4.5-1.58,7.66-4.13,9.13c-2.55,1.47-6.08,1.26-9.97-0.99
					c-7.79-4.5-14.11-15.44-14.11-24.43c0-4.5,1.58-7.66,4.13-9.13c2.55-1.47,6.08-1.26,9.97,0.99
					C384.18,135,390.49,145.94,390.49,154.93z"/>
				<path class="st15" d="M382.9,150.55c0,2.08-0.73,3.53-1.91,4.21c-1.18,0.68-2.81,0.58-4.6-0.46c-3.6-2.08-6.51-7.12-6.51-11.28
					c0-2.08,0.73-3.53,1.91-4.21c1.18-0.68,2.81-0.58,4.6,0.46C379.98,141.35,382.9,146.4,382.9,150.55z"/>
			</g>
		</g>
		<g>
			<path class="st20" d="M378.14,156.98c-0.32,3.02-1.62,5.06-3.48,5.93c-1.86,0.87-4.26,0.56-6.78-1.14
				c-5.03-3.39-8.6-11.03-7.97-17.07c0.32-3.02,1.62-5.06,3.48-5.93s4.26-0.56,6.78,1.14C375.2,143.3,378.77,150.95,378.14,156.98z"
				/>
			<path class="st20" d="M393.13,167.08c-0.84,7.98-4.29,13.39-9.21,15.69c-4.91,2.29-11.28,1.47-17.94-3.01
				c-13.32-8.97-22.76-29.18-21.08-45.15c0.84-7.98,4.29-13.39,9.21-15.69c4.91-2.29,11.28-1.47,17.94,3.01
				C385.37,130.9,394.81,151.11,393.13,167.08z"/>
			<path class="st20" d="M406.68,176.2c-1.31,12.47-6.71,20.92-14.38,24.5c-7.67,3.58-17.62,2.3-28.01-4.7
				c-20.8-14-35.54-45.57-32.92-70.5c1.31-12.47,6.71-20.92,14.38-24.5c7.67-3.58,17.62-2.3,28.01,4.7
				C394.55,119.7,409.29,151.26,406.68,176.2z"/>
			<path class="st20" d="M426.26,177.51c-1.63,15.5-8.34,26.01-17.88,30.47c-9.54,4.45-21.9,2.86-34.84-5.85
				c-25.86-17.41-44.19-56.66-40.94-87.67c1.63-15.5,8.34-26.01,17.88-30.46c9.54-4.45,21.9-2.86,34.84,5.85
				C411.18,107.25,429.51,146.5,426.26,177.51z"/>
			<path class="st20" d="M387.1,91.08c-5.64,1.67-13.19,5.72-16.94,48.83"/>
			<path class="st20" d="M367.87,161.77c-0.53,18.85-2.95,44.37,5.67,40.35"/>
			<path class="st20" d="M378.14,156.98c10.6,7.84,20.28,15.53,28.54,19.22c8.26,3.69,15.03,3.44,19.58,1.31"/>
			<path class="st20" d="M359.9,144.71c-10.69-6.02-23.76-14.56-28.54-19.22c-3.74-3.64-2.25-9.49,1.24-11.04"/>
		</g>
	</g>
	<g>
		<path class="st6" d="M335.12,128.7c-6.22,0.4-9.48,4.79-15.95,11.55c-6.48,6.76-18.96,3.26-27.66,5.65
			c-5.76,1.58-8.39,6.39-8.39,6.39l1.27,1.76c0,0,2.6-4.91,8.39-6.39c5.79-1.48,21.19,1.11,27.66-5.65
			c6.48-6.76,10.47-11.41,16.69-11.8L335.12,128.7z"/>
		<path class="st6" d="M304.45,175.22c0,0,1.94-5.2,7.49-7.41c5.55-2.21,18.57-0.28,24.12-7.81c5.55-7.54,10.96-18.05,17.08-19.24
			l-2.15-1.32c-6.12,1.19-10.86,11.44-16.41,18.98c-5.55,7.54-18.57,5.6-24.12,7.81c-5.55,2.21-7.49,7.41-7.49,7.41"/>
		<path class="st6" d="M321.41,198.72c0,0,1.55-5.33,6.92-7.96c5.37-2.62,18.5-1.67,23.47-9.61c4.97-7.94,9.05-18.49,15.06-20.14
			l-1.71-1.63c-6.01,1.65-9.99,12.38-14.95,20.31c-4.97,7.94-18.1,6.98-23.47,9.61c-5.37,2.62-6.92,7.96-6.92,7.96"/>
	</g>
</g>
<g id="Character">
	<g id="Character_10_">
		<g id="Sofa_1_">
			<g>
				<path class="st15" d="M204.19,460.98c-1.33,0-2.46-1.03-2.55-2.38l-3.76-53.42c-0.2-2.77-1.66-5.4-2.91-6.12l-93.15-54.89
					c-0.01-0.01-0.02-0.01-0.03-0.02c-0.11,0.22-0.26,0.65-0.31,1.33l-3.76,49.08c-0.11,1.41-1.33,2.44-2.75,2.36
					c-1.41-0.11-2.47-1.34-2.36-2.75l3.76-49.08c0.2-2.67,1.3-4.67,3.09-5.61c1.49-0.79,3.29-0.7,4.93,0.25l93.15,54.9
					c2.91,1.68,5.15,5.87,5.45,10.2l3.76,53.42c0.1,1.41-0.96,2.64-2.38,2.73C204.32,460.98,204.25,460.98,204.19,460.98z"/>
			</g>
			<g>
				<path class="st15" d="M344.55,379.88c-1.33,0-2.46-1.03-2.55-2.38l-3.76-53.42c-0.2-2.77-1.66-5.4-2.9-6.12l-93.15-54.9
					c-0.01-0.01-0.02-0.01-0.03-0.02c-0.11,0.22-0.26,0.65-0.31,1.33l-3.76,49.08c-0.11,1.41-1.32,2.45-2.75,2.36
					c-1.41-0.11-2.47-1.34-2.36-2.75l3.76-49.08c0.21-2.68,1.3-4.67,3.09-5.61c1.49-0.79,3.29-0.7,4.93,0.25l93.15,54.89
					c2.91,1.68,5.15,5.87,5.45,10.2l3.76,53.42c0.1,1.41-0.96,2.64-2.38,2.73C344.67,379.88,344.61,379.88,344.55,379.88z"/>
			</g>
			<g>
				<g>
					<path class="st7" d="M200.73,402.63L98.32,342.38c-2.82-1.63-4.43-4.04-4.44-6.62c0-2.58,1.62-5,4.44-6.63l125.4-72.47
						c4.97-2.87,12.75-2.87,17.72,0l102.42,60.24c2.82,1.63,4.43,4.04,4.43,6.62c0,2.58-1.62,5-4.44,6.63l-125.4,72.47
						c-2.49,1.43-5.67,2.15-8.86,2.15C206.4,404.78,203.22,404.06,200.73,402.63z M226.33,261.19l-125.4,72.47
						c-1.12,0.65-1.82,1.45-1.82,2.1c0,0.64,0.7,1.45,1.82,2.09l102.42,60.24c3.38,1.95,9.1,1.95,12.49,0l125.4-72.47
						c1.12-0.65,1.82-1.45,1.82-2.1s-0.7-1.45-1.82-2.09l-102.42-60.24c0,0,0,0,0,0c-1.69-0.98-3.97-1.46-6.24-1.46
						C230.3,259.72,228.03,260.21,226.33,261.19z M240.11,258.92h0.01H240.11z"/>
				</g>
			</g>
			<g>
				<g>
					<g>
						<g>
							<path class="st12" d="M288.43,281.76c0.96,0,1.83-0.67,2.04-1.65l8.5-38.91c0.25-1.13-0.47-2.24-1.6-2.49
								c-1.12-0.25-2.24,0.47-2.49,1.6l-8.5,38.91c-0.25,1.13,0.47,2.24,1.6,2.49C288.13,281.75,288.28,281.76,288.43,281.76z"/>
						</g>
					</g>
					<g>
						<g>
							<path class="st12" d="M266.56,269.14c0.96,0,1.83-0.67,2.04-1.65l8.5-38.91c0.25-1.13-0.47-2.24-1.6-2.49
								c-1.13-0.25-2.25,0.47-2.49,1.6l-8.5,38.91c-0.25,1.13,0.47,2.24,1.6,2.49C266.26,269.12,266.41,269.14,266.56,269.14z"/>
						</g>
					</g>
				</g>
				<g>
					<g>
						<path class="st12" d="M240.73,217.55c0-0.63,0.42-1.26,1.25-1.74l10.96-6.33c1.67-0.96,4.37-0.96,6.04,0l61.16,35.31
							c0.83,0.48,1.25,1.11,1.25,1.74c0,0.59,0,2.68,0,3.27c0,0.63-0.42,1.26-1.25,1.74l-10.96,6.33c-1.67,0.96-4.37,0.96-6.04,0
							l-61.16-35.31c-0.83-0.48-1.25-1.11-1.25-1.74C240.73,220.24,240.73,218.14,240.73,217.55z"/>
					</g>
					<g>
						<path class="st15" d="M241.98,215.81l10.96-6.33c1.67-0.96,4.37-0.96,6.04,0l47.18,27.24v21.88c-1.09,0-2.19-0.24-3.02-0.72
							l-61.16-35.31c-0.83-0.48-1.25-1.11-1.25-1.74c0-0.59,0-2.68,0-3.27C240.73,216.92,241.15,216.29,241.98,215.81z"/>
					</g>
					<g>
						<path class="st7" d="M258.98,209.48l61.16,35.31c0.83,0.48,1.25,1.11,1.25,1.74s-0.42,1.26-1.25,1.74l-10.96,6.33
							c-1.67,0.96-4.37,0.96-6.04,0l-61.16-35.31c-0.83-0.48-1.25-1.11-1.25-1.74c0-0.63,0.42-1.26,1.25-1.74l10.96-6.33
							C254.61,208.52,257.31,208.52,258.98,209.48z"/>
					</g>
				</g>
			</g>
			<g>
				<g>
					<path class="st21" d="M105.04,314.47l129.56-74.9c0.68-0.39,1.63-0.34,2.67,0.26l99.58,58.62c2.08,1.2,3.78,4.13,3.78,6.54
						v15.8c0,1.2-0.42,2.05-1.11,2.44l-129.56,74.9c-0.68,0.39-1.63,0.34-2.67-0.26l-99.58-58.62c-2.09-1.2-3.78-4.13-3.78-6.54
						l0-15.8C103.93,315.71,104.35,314.87,105.04,314.47z"/>
				</g>
				<g class="st22">
					<path class="st5" d="M105.04,314.47l129.56-74.9c0.68-0.39,1.63-0.34,2.67,0.26l99.58,58.62c2.08,1.2,3.78,4.13,3.78,6.54v15.8
						c0,1.2-0.42,2.05-1.11,2.44l-129.56,74.9c-0.68,0.39-1.63,0.34-2.67-0.26l-99.58-58.62c-2.09-1.2-3.78-4.13-3.78-6.54l0-15.8
						C103.93,315.71,104.35,314.87,105.04,314.47z"/>
				</g>
				<g>
					<path class="st21" d="M209.96,398.13l129.55-74.89c0.68-0.4,1.12-1.24,1.12-2.44V305c0-1.29-0.51-2.74-1.27-3.98L209.8,375.92
						c0.77,1.24,1.26,2.69,1.26,3.98v15.8C211.05,396.9,210.63,397.75,209.96,398.13z"/>
				</g>
				<g class="st23">
					<path class="st5" d="M209.96,398.13l129.55-74.89c0.68-0.4,1.12-1.24,1.12-2.44V305c0-1.29-0.51-2.74-1.27-3.98L209.8,375.92
						c0.77,1.24,1.26,2.69,1.26,3.98v15.8C211.05,396.9,210.63,397.75,209.96,398.13z"/>
				</g>
				<g class="st24">
					<path class="st21" d="M211.06,395.7l0-15.8c0-2.41-1.69-5.34-3.78-6.54l-99.58-58.62c-1.04-0.6-1.99-0.66-2.67-0.26
						c-0.68,0.39-1.11,1.24-1.11,2.44l0,15.8c0,2.41,1.69,5.34,3.78,6.54l99.58,58.62c1.04,0.6,1.99,0.66,2.67,0.26
						C210.64,397.75,211.06,396.9,211.06,395.7z"/>
				</g>
			</g>
			<g>
				<g>
					<path class="st21" d="M95.66,213.53l115.4-66.7c0.55-0.32,1.37-0.23,2.36,0.34l13.7,7.91c2.09,1.2,4.11,4.1,4.52,6.48
						l15.28,88.18c0.22,1.24-0.05,2.09-0.66,2.45l-115.4,66.7c-0.55,0.32-1.38,0.23-2.36-0.34l-13.7-7.91
						c-2.08-1.2-4.11-4.1-4.52-6.48l-15.28-88.18C94.78,214.74,95.05,213.89,95.66,213.53z"/>
				</g>
				<g class="st22">
					<path class="st5" d="M95.66,213.53l115.4-66.7c0.55-0.32,1.37-0.23,2.36,0.34l13.7,7.91c2.09,1.2,4.11,4.1,4.52,6.48
						l15.28,88.18c0.22,1.24-0.05,2.09-0.66,2.45l-115.4,66.7c-0.55,0.32-1.38,0.23-2.36-0.34l-13.7-7.91
						c-2.08-1.2-4.11-4.1-4.52-6.48l-15.28-88.18C94.78,214.74,95.05,213.89,95.66,213.53z"/>
				</g>
				<g>
					<path class="st21" d="M131.52,316.44c0.21,1.26-0.05,2.09-0.66,2.46l115.39-66.71c0.61-0.35,0.87-1.2,0.66-2.44l-15.28-88.19
						c-0.21-1.22-0.85-2.56-1.69-3.75l-115.4,66.69c0.85,1.19,1.48,2.55,1.69,3.75L131.52,316.44z"/>
				</g>
				<g class="st23">
					<path class="st5" d="M131.52,316.44c0.21,1.26-0.05,2.09-0.66,2.46l115.39-66.71c0.61-0.35,0.87-1.2,0.66-2.44l-15.28-88.19
						c-0.21-1.22-0.85-2.56-1.69-3.75l-115.4,66.69c0.85,1.19,1.48,2.55,1.69,3.75L131.52,316.44z"/>
				</g>
				<g class="st24">
					<path class="st21" d="M128.49,318.55l-13.7-7.91c-2.09-1.2-4.11-4.1-4.52-6.48l-15.28-88.18c-0.22-1.25,0.06-2.1,0.67-2.45
						c0.55-0.32,1.38-0.23,2.36,0.34l13.7,7.91c2.09,1.2,4.11,4.1,4.52,6.48l15.28,88.18c0.22,1.25-0.06,2.1-0.67,2.45
						C130.3,319.21,129.48,319.13,128.49,318.55z"/>
				</g>
			</g>
			<g id="Cushion_3_">
				<path class="st19" d="M152.51,215.73c-5.27-0.53-9.64,5.55-18.43,9.85c-16.38,8.01-23.75,15.29-31.38,24.18
					c-7.63,8.89-10.51,7.39-12.84,12.92c-2.33,5.54,4.11,7.91,7.18,15.77c5.18,13.24,11.61,22.14,18.31,27.66
					c11.83,9.74,10.02,16.53,15.4,16.47c5.73-0.07,5.32-4.99,14.33-8.49c21.31-8.28,30.06-15.65,39.91-30.22
					c3.85-5.69,8.75-5.21,9.68-10.71c0.47-2.75-3.53-4.23-7.14-12.85c-5.99-14.33-15.56-27.78-24.89-34.77
					C158.57,222.5,157.87,216.26,152.51,215.73z"/>
				<path class="st16" d="M152.51,215.73c-5.27-0.53-9.64,5.55-18.43,9.85c-16.38,8.01-23.75,15.29-31.38,24.18
					c-7.63,8.89-10.51,7.39-12.84,12.92c-2.33,5.54,4.11,7.91,7.18,15.77c5.18,13.24,11.61,22.14,18.31,27.66
					c11.83,9.74,10.02,16.53,15.4,16.47c5.73-0.07,5.32-4.99,14.33-8.49c21.31-8.28,30.06-15.65,39.91-30.22
					c3.85-5.69,8.75-5.21,9.68-10.71c0.47-2.75-3.53-4.23-7.14-12.85c-5.99-14.33-15.56-27.78-24.89-34.77
					C158.57,222.5,157.87,216.26,152.51,215.73z"/>
				<path class="st14" d="M95.67,271.91c4.5,6.38,3.91,12.75,13.17,24.48c8.89,11.27,15.33,14.43,18,19.49
					c2.21,4.2,5.24,6.16,5.96,1.25c0.72-4.91-3.14-18.97-12.1-30.99c-10.32-13.85-16.9-19.15-21.36-21.18
					C92.35,261.77,92.13,266.9,95.67,271.91z"/>
				<path class="st14" d="M145.45,308.68c-5.88,2.03-6.13,7.24-9.09,11.27c1.81-1.72,3.93-3.99,8.73-5.86
					c9.71-3.77,16.8-7.36,22.59-11.52C160.15,306.54,149.71,307.21,145.45,308.68z M182.26,281.66c-3.64,3.36-3.28,9.33-7.67,15.09
					c3.71-3.66,6.99-7.84,10.4-12.88c3.51-5.2,7.89-5.26,9.34-9.42C191.11,278.54,186.65,277.62,182.26,281.66z"/>
				<path class="st25" d="M145.17,228.42c-12.55,2.35-25.1,8.81-33.73,18.47c-1.62,1.95-2.57,4.6-2.3,7.28
					c0.35,3.37,1.89,6.15,5.07,7.94c2.95,1.67,7.26,1.67,10.35,1.28c6.5-0.83,10.32-2.53,18.72-2.66c2.48-0.04,6.08,0.7,8.85,2.24
					c4.15,2.3,7.24,4.91,10.87,6.85c5,2.68,13.87,1.45,16.95-1.63c3.29-3.3,4.03-8.24,1.08-14.44
					C174.5,239.96,162.29,226.53,145.17,228.42z"/>
			</g>
		</g>
		<g>
			<g>
				<g>
					<g>
						<path class="st12" d="M142.68,365.83c0.19,0,0.39-0.03,0.59-0.08c1.11-0.32,1.75-1.49,1.42-2.6l-8.5-29.09
							c-0.32-1.11-1.49-1.75-2.6-1.42c-1.11,0.32-1.75,1.49-1.42,2.6l8.5,29.09C140.94,365.24,141.77,365.83,142.68,365.83z"/>
					</g>
				</g>
				<g>
					<g>
						<path class="st12" d="M120.81,353.2c0.19,0,0.39-0.03,0.59-0.08c1.11-0.32,1.75-1.49,1.42-2.6l-8.5-29.09
							c-0.32-1.11-1.49-1.74-2.6-1.42c-1.11,0.32-1.75,1.49-1.42,2.6l8.5,29.09C119.07,352.61,119.9,353.2,120.81,353.2z"/>
					</g>
				</g>
			</g>
			<g>
				<g>
					<path class="st12" d="M86.74,306.38c0-0.63,0.42-1.26,1.25-1.74l10.96-6.33c1.67-0.96,4.37-0.96,6.04,0l61.16,35.31
						c0.83,0.48,1.25,1.11,1.25,1.74c0,0.59,0,2.68,0,3.27c0,0.63-0.42,1.26-1.25,1.74l-10.96,6.33c-1.67,0.96-4.37,0.96-6.04,0
						l-61.16-35.31c-0.83-0.48-1.25-1.11-1.25-1.74C86.74,309.06,86.74,306.96,86.74,306.38z"/>
				</g>
				<g>
					<path class="st15" d="M87.99,304.63l10.96-6.33c1.67-0.96,4.37-0.96,6.04,0l47.18,27.24v21.88c-1.09,0-2.19-0.24-3.02-0.72
						l-61.16-35.31c-0.83-0.48-1.25-1.11-1.25-1.74c0-0.59,0-2.68,0-3.27C86.74,305.75,87.15,305.12,87.99,304.63z"/>
				</g>
				<g>
					<path class="st7" d="M104.99,298.31l61.16,35.31c0.83,0.48,1.25,1.11,1.25,1.74c0,0.63-0.42,1.26-1.25,1.74l-10.96,6.33
						c-1.67,0.96-4.37,0.96-6.04,0l-61.16-35.31c-0.83-0.48-1.25-1.11-1.25-1.74c0-0.63,0.42-1.26,1.25-1.74l10.96-6.33
						C100.62,297.34,103.32,297.34,104.99,298.31z"/>
				</g>
			</g>
		</g>
		<g id="Character_2_">
			<g>
				<g>
					<path class="st15" d="M273.93,413.6c-6.53,3.94-15.02-0.47-18.94-6.14c-3.91-5.66-5.58-10.38-5.52-18.76
						c0.07-9.66,4.06-14.07,4.36-18.76c0.54-8.35,0.57-14.62,6.96-15.52C267.18,353.52,273.93,413.6,273.93,413.6z"/>
					<path class="st26" d="M246.03,268.39c22.12-4,67.94-9.95,80.28-6.39c12.35,3.56,17.9,11.71,16.3,22.22
						c-1.6,10.51-6.81,20.24-19.37,35.52c-12.56,15.27-35.95,43.71-39.62,51.16c-3.67,7.45-4.5,20.78-3.36,30.7
						c1.14,9.92-2.43,12.01-8.16,12.13c-5.73,0.12-17.9-7.8-19.39-21.42c-1.49-13.63,3.43-13.04,4.52-23.28
						c1.09-10.24-0.95-11,3.56-14.6s9.71-2.02,14.55-10.48c4.83-8.46,10.15-27.18,10.15-27.18l-46.73,6.21
						c0,0-14.77-6.31-11.17-19.41C231.19,290.46,246.03,268.39,246.03,268.39z"/>
					<path class="st15" d="M252.52,390.13c4.18-3.28,26.05,2.88,27.63,10.3l-0.23-12.04c0,0-8.41-13.32-25.88-9.06
						C249.84,385.43,252.52,390.13,252.52,390.13z"/>
					<path class="st27" d="M245.53,279.22c3.18,7.37,1.02,20.27-2.25,26.27c0,0,13.36,6.35,22.04,8.24
						c8.69,1.9,12.99-0.15,17.41-7.06c4.43-6.9,7.99-17.16,22.95-21.32c-12.76,6.84-17,21.19-20.19,31.4l-46.73,6.21
						c0,0-12.08-1.25-7.9-18.81C235.05,286.61,245.53,279.22,245.53,279.22z"/>
					<path class="st27" d="M267.07,364.95c-3.8-0.39-6.92-0.74-9.48-1.05c0.18-5.53-0.4-6.61,3.21-9.49
						c4.51-3.6,9.71-2.02,14.55-10.48c3.27-5.73,6.76-16.13,8.67-22.27c1.63,0.21,9.03,1.48,13.78,7.3
						c2.45,3.01,5.35,7.94,7.78,12.42c-10.04,12.48-19.7,24.94-21.95,29.51c-1.77,3.6-2.87,8.57-3.41,13.86
						C277.34,382.75,269.21,373.45,267.07,364.95z"/>
					<path class="st15" d="M385.24,423.88c1.8,2.62,1.68,7.55-4.32,11.73c-6.01,4.18-17.36,7.38-25.78,6.01
						c-8.43-1.37-12.25-5.16-17.47-8.35c-4.91-3-6.65-2.19-10.24-3.64c-3.59-1.44-3.38-7.22-3.38-7.22L385.24,423.88z"/>
					<path class="st26" d="M158.74,296.76c0,9.88,5.06,43.83,42.24,52.83c36.62,8.85,67.4,12.59,67.4,12.59s4.79,9.78,17.96,20.76
						c13.18,10.98,26.71,20.61,31.14,25.63c5.77,6.53,3.59,10.37,6.28,14.29c1.41,2.06,2.5,3.33,5.3,4.26
						c2.52,0.84,7.03,1.18,11.81,4.27c10.88,7.03,20.12,7.99,30.32,4.88c4.53-1.38,14.39-7.68,14.1-11.56
						c-0.48-6.58-4.75-5.52-11.72-6.94c-6.97-1.42-15.64-4.37-23.06-8.05c-7.42-3.67-15.29-14.6-22.26-25.36
						c-6.97-10.76-19.25-31.24-26.15-41.68c-6.9-10.44-9.49-12.92-21.37-17.59c-14.4-5.66-46.12-17.87-46.12-17.87
						s5.62-16.87,11.4-38.8C204.57,263.71,160.55,258.91,158.74,296.76z"/>
					<path class="st15" d="M358.1,439.36c-0.9-5.27,4.63-21.6,17.43-21.26c0,0-5.72-2.66-10.36-2.56
						c-10.65,1.69-16.05,12.17-16.36,20.82C350.62,438.37,358.1,439.36,358.1,439.36z"/>
				</g>
				<g>
					<path class="st7" d="M246.03,268.39l21.81-3.73c0,0-9.63,6.25-8.75,23.69c0.89,17.44,8.75,30.76,8.75,30.76l-1.47,0.34
						l-14.55-5.63c0,0-6.2,1.89-14.73,12.64c-8.53,10.75-8.47,29.84-8.47,29.84s-29.32-4.98-41.48-10.94
						c-12.16-5.96-31.61-15.86-29.11-55.41L246.03,268.39z"/>
					<path class="st12" d="M265.33,313.74c-5.96-1.57-22.04-8.24-22.04-8.24s5.95-9.17,3.7-24.81
						c-0.96,12.02-5.27,22.42-12.35,26.51l31.74,12.26l1.47-0.34L265.33,313.74z"/>
				</g>
			</g>
			<g id="Top_16_">
				<g>
					<path class="st26" d="M266.43,209.1c0,0,8.67-25.4,8.67-26.08c0-1.88-2.54-2.08-5.31-4.06c-3.38-2.4-6.23-5.11-6.87-5.86
						c-1.91-1.16-8.93-2.47-11.86-3.63c-2.93-1.16-2.18-4.84-1.23-4.56c0.95,0.27,4.97,1.02,5.18,1.02s-8.58-4.22-10.9-6.47
						c-2.32-2.25-0.89-5.65,0.34-5.04c1.23,0.61,4.22,2.45,4.22,2.45s-3.34-3.07-5.31-5.38c-1.98-2.32-0.48-5.11,0.27-5.24
						c0.75-0.14,1.62,0.56,3.84,2.79c-1.47-2.59-1.39-4.16,0-5.26c1.39-1.1,2.98,1.3,8.75,5.73c5.76,4.43,19.48,10.88,26.43,16.27
						c6.96,5.39,6.14,7.66,7.38,15.11c0.85,5.08-1.35,36.11-5.07,48.19c-3.08,9.97-8.8,10.91-21.86,5.69
						c-13.74-5.49-39.04-16.42-39.04-16.42l-18.5-34.42c9.8-1.23,13.99-1.57,29.08,6.38C249.72,198.25,266.43,209.1,266.43,209.1z"
						/>
					<path class="st27" d="M266.43,209.1c-1.59,5.57,0,10.75,0,10.75s-3.31-3.82-1.96-12.01L266.43,209.1z"/>
					<path class="st27" d="M262.37,157.14c0,0-1.56,0.67-4.84-1.17c-3.84-2.16-10.05-6.94-10.05-6.94s8.07,4.98,10.79,6.68
						C260.49,157.11,262.37,157.14,262.37,157.14z"/>
					<path class="st27" d="M248.67,156.87c0,0,6.08,3.29,7.99,4.1c1.92,0.8,3.08,0.71,3.08,0.71s-3.39-1.37-6.65-3.32
						c-1.14-0.68-2.55-1.22-3.66-1.86c-2.06-1.19-3.54-2.31-3.54-2.31C246.87,155.17,247.8,156.07,248.67,156.87z"/>
					<path class="st27" d="M255,165.93c2.46,0.44,5.68,0.93,6.93,0.8c-3.92-0.31-14.1-4.69-14.1-4.69
						C249.9,163.23,252.36,164.55,255,165.93z"/>
					<path class="st27" d="M272.12,180.34c1.72,0.87,2.98,1.36,2.98,2.69c0,0.19-0.66,2.26-1.62,5.16l0,0c0,0,0.59-1.81,1.69-3.83
						c1.1-2.01,5.21-2.55,5.21-3.17C280.38,180.57,276.3,181.87,272.12,180.34z"/>
				</g>
				<g>
					<g id="Chest_12_">
						<g>
							<path class="st0" d="M158.08,250.73c-1.02-26.92-2.95-44.97-1.24-54c3.94-1.64,12.42-5,12.42-5s9.76-3.5,26.7-6.7l9.6-1.11
								c6.32,4.89,23.23,15.52,29.31,26.13c4.07,7.1,4.94,17.46-1.86,25.68c0.97,7.93,0.97,16.55,0.97,16.55s10.53,9.47,12.06,16.11
								c0.09,9.18-29.46,46.22-88.5,22.63c-0.27-6.74,0.11-16.04,2.16-28.2C160.5,258.05,158.08,250.73,158.08,250.73z"/>
							<path class="st3" d="M213.02,242.08c0,0-5.42,9.19-18.85,9.68c-13.85,0.51-18.19-10.39-18.19-10.39s1.63,14.88,18.17,14.28
								C209.42,255.1,213.02,242.08,213.02,242.08z"/>
						</g>
					</g>
				</g>
				<g>
					<g id="XMLID_1439_">
						<path class="st12" d="M210.23,135.96c8.11-24.12-22.66-27.3-39.53-23.01c-19.92,4.29-19.62,16.94-31.5,19.2
							c-12.74,1.33-29.43-3.9-38.52,7.79c9.81,4.37-0.85,13.56-16.55,2.52c-1.49,9.18,1.5,19.75,9.52,24.46
							c9.04,5.3,22,1.69,31.72,5.62c14.59,5.9,16.98,10.66,34.06,10.66c8.27,0,15.49-3.4,20.98-14.01c3.69-1.79,6.04-4.91,8.02-8.37
							C195.55,151.52,206.5,147.05,210.23,135.96z"/>
						<g id="XMLID_1442_">
							<path class="st26" d="M202.37,122.77c4.54,1.85,9.65,12.87,10.96,32.67c0.76,11.43-1.36,17.08-6,20.54
								c-2.24,1.67-7.43,3.23-13.03,3.5l1.03,7.52c0,0,22.82,17.35,5.87,21.27c-17.69,4.1-31-15.96-31-15.96l-3.6-27.58
								c-0.75,1.79-6.03,5.01-10.66,0.69c-5.44-5.08-5.52-12.16-1.88-15.34c3.76-3.29,8.94-1.54,11.53,2.9
								c4.63,1.13,9.69-4.29,6.77-21.05c4.63-5.28,12.61-0.37,19.07-2.2C196.32,128.34,196.82,120.83,202.37,122.77z"/>
						</g>
						<g>
							<path class="st28" d="M158.02,162.82c0.02,1.27,1.07,2.29,2.35,2.27c1.28-0.02,2.31-1.07,2.29-2.34
								c-0.02-1.27-1.07-2.29-2.35-2.27C159.04,160.5,158.01,161.55,158.02,162.82z"/>
						</g>
						<g id="XMLID_1440_">
							<g id="XMLID_1441_">
								<path class="st27" d="M194.3,179.46c-13.9-0.79-22.3-5.07-24.54-10.3c0,0,1.97,6.98,6.24,9.53
									c5.99,3.57,18.81,4.49,18.81,4.49L194.3,179.46z"/>
							</g>
						</g>
					</g>
					<g>
						<g>
							<path class="st29" d="M198.78,162.41l-9.3-0.41c-0.22,2.57,1.68,4.74,4.25,4.86C196.3,166.97,198.56,164.98,198.78,162.41z"
								/>
							<path class="st30" d="M195.71,166.5c-0.62,0.25-1.28,0.38-1.98,0.35c-1.79-0.08-3.24-1.17-3.89-2.69
								C192.14,163.59,194.49,164.57,195.71,166.5z"/>
						</g>
						<g>
							<path class="st15" d="M182.25,149.23c0.22,1.42,1.21-0.87,2.64-1.09c1.43-0.22,2.75,1.7,2.53,0.28
								c-0.22-1.42-1.56-2.38-2.98-2.16C183,146.48,182.03,147.81,182.25,149.23z"/>
							<path class="st15" d="M202.04,145.57c0.22,1.42,1.21-0.87,2.64-1.09c1.43-0.22,2.75,1.7,2.53,0.28
								c-0.22-1.42-1.56-2.38-2.98-2.16C202.8,142.83,201.82,144.16,202.04,145.57z"/>
							<path class="st15" d="M206.69,137.8l-6.02-2c0.5-1.68,2.25-2.6,3.91-2.05C206.24,134.3,207.19,136.11,206.69,137.8z"/>
							<path class="st15" d="M179.94,142.24l5.15-3.83c-1.01-1.46-2.99-1.79-4.41-0.73C179.25,138.74,178.92,140.78,179.94,142.24z"
								/>
						</g>
						<g id="XMLID_1435_">
							<g id="XMLID_1438_">
								<polygon class="st27" points="193.88,144.49 196.77,157.9 204.4,153.48 								"/>
							</g>
						</g>
						<path class="st30" d="M184.83,157.87c0,2.68-2.17,4.85-4.85,4.85c-2.68,0-4.85-2.17-4.85-4.85c0-2.68,2.17-4.85,4.85-4.85
							C182.66,153.02,184.83,155.19,184.83,157.87z"/>
						<path class="st30" d="M217.62,151.3c0,2.68-2.17,4.85-4.85,4.85c-2.68,0-4.85-2.17-4.85-4.85c0-2.68,2.17-4.85,4.85-4.85
							C215.44,146.44,217.62,148.62,217.62,151.3z"/>
					</g>
				</g>
				<g id="Arm_14_">
					<path class="st26" d="M159.65,195.58c-12.14,4.44-20.19,5.13-26.38,22.86c-6.68,19.16-13.57,27.49-18.55,48.74
						c-2.33,9.93-2.36,14.52,7.13,21.17c16.75,11.74,29.09,14.65,35.47,19.74c3.97,3.16,5.24,5.76,6.46,8c0,0,7.91-31.02,0.78-27.43
						c-3.75,1.89-18.62-14.43-22.39-17.87l14.02-25.44l1.89,5.38C176.94,236.88,167.42,206.92,159.65,195.58z"/>
					<path class="st27" d="M159.69,300.48c-0.19-2.64,0.24-4.2,0.9-6.05c0.66-1.84,2.03,8.84,2.03,8.84l0.46,11.26l-0.05,0.09
						c-0.9-1.61-2.06-3.4-4.3-5.45c-0.17-1.63-0.04-2.83,0.33-3.71C159.57,304.22,159.88,303.12,159.69,300.48z"/>
					<g id="Glass_3_">
						<g id="Glass_4_">
							<g>
								<path class="st31" d="M164.92,283.39l4.46,35.71l0,0.01c0.07,0.52,0.24,1.04,0.52,1.53c0.64,1.15,1.85,2.18,3.61,2.97
									c5.17,2.31,13.15,1.59,17.82-1.61c1.59-1.09,2.59-2.32,3.02-3.57c0.16-0.47,0.24-0.93,0.24-1.4l0-0.02
									c0-0.14-0.01-0.27-0.02-0.41l0-0.02l-1.99-35.68c0.57-1.01,0.82-2.04,0.77-3.05l2.43,43.51l0.02,0.44
									c0.02,1.87-1.12,3.82-3.44,5.45c-4.95,3.49-13.42,4.25-18.91,1.71c-2.68-1.24-4.16-3.04-4.39-4.97l0-0.03l-0.01-0.11
									l-5.4-43.33C163.76,281.54,164.19,282.5,164.92,283.39z"/>
								<path class="st32" d="M164.92,283.39l4.46,35.71l0,0.01c0.07,0.52,0.24,1.04,0.52,1.53c0.64,1.15,1.85,2.18,3.61,2.97
									c5.17,2.31,13.15,1.59,17.82-1.61c1.59-1.09,2.59-2.32,3.02-3.57c0.16-0.47,0.24-0.93,0.24-1.4l0-0.02
									c0-0.14-0.01-0.27-0.02-0.41l0-0.02l-1.99-35.68c0.57-1.01,0.82-2.04,0.77-3.05l2.43,43.51l0.02,0.44
									c0.02,1.87-1.12,3.82-3.44,5.45c-4.95,3.49-13.42,4.25-18.91,1.71c-2.68-1.24-4.16-3.04-4.39-4.97l0-0.03l-0.01-0.11
									l-5.4-43.33C163.76,281.54,164.19,282.5,164.92,283.39z"/>
							</g>
							<g>
								<path class="st31" d="M168.51,286.01c6.1,2.83,15.51,1.98,21.01-1.89c1.4-0.99,2.42-2.08,3.04-3.2l1.99,35.68l0,0.02
									l0.02,0.41l0,0.02c0,0.46-0.08,0.93-0.24,1.4c-0.43,1.25-1.43,2.48-3.02,3.57c-4.67,3.2-12.65,3.92-17.82,1.61
									c-1.76-0.79-2.96-1.82-3.61-2.97c-0.28-0.49-0.45-1.01-0.52-1.53l0-0.01l-4.46-35.71
									C165.74,284.39,166.94,285.29,168.51,286.01z"/>
								<path class="st33" d="M168.51,286.01c6.1,2.83,15.51,1.98,21.01-1.89c1.4-0.99,2.42-2.08,3.04-3.2l1.99,35.68l0,0.02
									l0.02,0.41l0,0.02c0,0.46-0.08,0.93-0.24,1.4c-0.43,1.25-1.43,2.48-3.02,3.57c-4.67,3.2-12.65,3.92-17.82,1.61
									c-1.76-0.79-2.96-1.82-3.61-2.97c-0.28-0.49-0.45-1.01-0.52-1.53l0-0.01l-4.46-35.71
									C165.74,284.39,166.94,285.29,168.51,286.01z"/>
							</g>
							<g>
								<path class="st31" d="M194.58,316.94c0.05,1.73-1.03,3.54-3.26,5.07c-4.67,3.2-12.65,3.92-17.82,1.61
									c-2.46-1.1-3.84-2.69-4.11-4.4l-3.8-30.49c-0.3-2.01,0.85-4.16,3.48-5.95c5.06-3.44,13.7-4.21,19.29-1.74
									c2.91,1.29,4.42,3.2,4.49,5.23L194.58,316.94z"/>
								<path class="st34" d="M191.32,322c-4.67,3.2-12.65,3.92-17.82,1.61c-5.17-2.31-5.57-6.77-0.9-9.97
									c4.67-3.2,12.65-3.92,17.82-1.61C195.59,314.34,196,318.8,191.32,322z"/>
								<path class="st35" d="M194.58,316.94c0.05,1.73-1.03,3.54-3.26,5.07c-4.67,3.2-12.65,3.92-17.82,1.61
									c-2.46-1.1-3.84-2.69-4.11-4.4l-3.8-30.49c-0.3-2.01,0.85-4.16,3.48-5.95c5.06-3.44,13.7-4.21,19.29-1.74
									c2.91,1.29,4.42,3.2,4.49,5.23L194.58,316.94z"/>
								<path class="st36" d="M189.34,291.73c-5.06,3.44-13.7,4.21-19.29,1.74c-5.59-2.48-6.03-7.27-0.97-10.7
									c5.06-3.44,13.7-4.21,19.29-1.74C193.96,283.51,194.4,288.3,189.34,291.73z"/>
								<path class="st37" d="M170.05,293.47c4.85,2.14,11.98,1.84,17.09-0.51c-7.24,1.94-14.45-0.86-14.25-5.33
									c0-0.09,0.01-0.19,0.02-0.28c-1.58-0.27-3.07-0.72-4.41-1.33c-0.67-0.31-1.28-0.66-1.82-1.03
									C164.4,288.05,165.58,291.5,170.05,293.47z"/>
							</g>
							<g>
								<path class="st31" d="M163.62,280.49l0.01,0.06c0.13,0.99,0.56,1.96,1.29,2.84c0.82,1,2.02,1.9,3.59,2.63
									c6.1,2.83,15.51,1.98,21.01-1.89c1.4-0.99,2.42-2.08,3.04-3.2c0.57-1.01,0.82-2.04,0.77-3.05
									c-0.11-2.27-1.76-4.42-4.91-5.88c-6.1-2.83-15.51-1.98-21.01,1.89C164.6,275.86,163.35,278.25,163.62,280.49z
									 M168.13,274.43c5.16-3.51,13.97-4.3,19.68-1.77c5.71,2.53,6.15,7.41,0.98,10.92c-5.16,3.5-13.97,4.3-19.68,1.77
									C163.41,282.82,162.97,277.93,168.13,274.43z"/>
								<path class="st38" d="M163.62,280.49l0.01,0.06c0.13,0.99,0.56,1.96,1.29,2.84c0.82,1,2.02,1.9,3.59,2.63
									c6.1,2.83,15.51,1.98,21.01-1.89c1.4-0.99,2.42-2.08,3.04-3.2c0.57-1.01,0.82-2.04,0.77-3.05
									c-0.11-2.27-1.76-4.42-4.91-5.88c-6.1-2.83-15.51-1.98-21.01,1.89C164.6,275.86,163.35,278.25,163.62,280.49z
									 M168.13,274.43c5.16-3.51,13.97-4.3,19.68-1.77c5.71,2.53,6.15,7.41,0.98,10.92c-5.16,3.5-13.97,4.3-19.68,1.77
									C163.41,282.82,162.97,277.93,168.13,274.43z"/>
							</g>
							<g>
								<path class="st31" d="M169.12,285.35c5.71,2.52,14.52,1.73,19.68-1.77c5.16-3.51,4.72-8.39-0.98-10.92
									c-5.71-2.53-14.52-1.73-19.68,1.77C162.97,277.93,163.41,282.82,169.12,285.35z"/>
								<path class="st33" d="M169.12,285.35c5.71,2.52,14.52,1.73,19.68-1.77c5.16-3.51,4.72-8.39-0.98-10.92
									c-5.71-2.53-14.52-1.73-19.68,1.77C162.97,277.93,163.41,282.82,169.12,285.35z"/>
							</g>
							<g>
								<path class="st31" d="M190.45,282.22c-0.47,0.47-1.01,0.92-1.65,1.35c-5.16,3.5-13.97,4.3-19.68,1.77
									c-0.7-0.31-1.32-0.66-1.86-1.03c0.5-0.54,1.11-1.05,1.83-1.54c5.06-3.44,13.7-4.21,19.29-1.74
									C189.17,281.38,189.86,281.79,190.45,282.22z"/>
								<path class="st39" d="M190.45,282.22c-0.47,0.47-1.01,0.92-1.65,1.35c-5.16,3.5-13.97,4.3-19.68,1.77
									c-0.7-0.31-1.32-0.66-1.86-1.03c0.5-0.54,1.11-1.05,1.83-1.54c5.06-3.44,13.7-4.21,19.29-1.74
									C189.17,281.38,189.86,281.79,190.45,282.22z"/>
								<path class="st40" d="M188.37,281.03c-0.17-0.08-0.35-0.15-0.53-0.22c-0.01,0-0.02-0.01-0.03-0.01
									c-0.28-0.11-0.57-0.21-0.86-0.3c-1.56-0.5-3.28-0.79-5.06-0.88c-0.48-0.02-0.96-0.03-1.44-0.03c-0.41,0-0.82,0.02-1.24,0.05
									c-0.23,0.01-0.45,0.03-0.68,0.05c-0.44,0.04-0.87,0.09-1.31,0.15c-1.51,0.22-3,0.58-4.38,1.07
									c-1.38,0.49-2.66,1.12-3.76,1.87c-0.17,0.12-0.34,0.24-0.5,0.36c-0.03,0.02-0.06,0.05-0.09,0.07
									c-0.13,0.1-0.26,0.2-0.38,0.31c-0.02,0.02-0.04,0.03-0.06,0.05c-0.13,0.12-0.26,0.23-0.39,0.35
									c-0.01,0.01-0.01,0.01-0.02,0.02c-0.13,0.13-0.26,0.26-0.38,0.39c0.54,0.37,1.16,0.72,1.86,1.03
									c1.21,0.54,2.57,0.92,3.99,1.17C174.48,282.59,181.89,279.72,188.37,281.03z"/>
							</g>
							<path class="st41" d="M169.62,320.99l0.31,2.47l0.02,0.18c0.5,3.66,6.28,6.11,13.05,5.5c6.75-0.61,11.98-4.03,11.85-7.71
								l-0.01-0.22l-0.15-2.5c-0.36,3.52-5.47,6.69-11.98,7.28C176.21,326.57,170.62,324.37,169.62,320.99z"/>
						</g>
						<g id="Ice_2_">
							<g>
								<path id="XMLID_1484_" class="st42" d="M178.59,293.56l4.32,5.8c0.31,0.41,0.88,0.69,1.28,0.62l7.74-1.41
									c0.39-0.07,0.46-0.47,0.15-0.88l-4.32-5.8c-0.31-0.41-0.88-0.69-1.28-0.62l-7.74,1.41
									C178.35,292.76,178.28,293.15,178.59,293.56z"/>
								<path id="XMLID_1479_" class="st36" d="M177.14,301.78l4.32,5.8c0.16,0.21,0.38,0.38,0.61,0.49l1.45-8.22
									c-0.23-0.11-0.45-0.28-0.61-0.49l-4.32-5.8c-0.29-0.39-0.25-0.77,0.09-0.86c-0.37,0.09-0.7,0.41-0.76,0.74l-1.24,6.97
									C176.62,300.75,176.83,301.37,177.14,301.78z"/>
								<path id="XMLID_1478_" class="st43" d="M182.07,308.07c0.11,0.05,0.22,0.09,0.32,0.11c0.02,0,0.05,0.01,0.07,0.01
									c0.06,0.01,0.12,0.01,0.18,0.01c0.03,0,0.07,0,0.1-0.01l7.74-1.41c0.39-0.07,0.76-0.41,0.82-0.75l1.24-6.97
									c0.06-0.32-0.11-0.86-0.39-1.27c0.23,0.37,0.14,0.71-0.22,0.78l-7.74,1.41c-0.2,0.04-0.44-0.02-0.67-0.13L182.07,308.07z"/>
							</g>
							<g>
								<path id="XMLID_1477_" class="st42" d="M172.84,311.76l6.55,1.57c0.47,0.11,1.04-0.03,1.28-0.32l4.7-5.63
									c0.24-0.29,0.05-0.61-0.42-0.72l-6.56-1.57c-0.47-0.11-1.04,0.03-1.28,0.32l-4.7,5.63
									C172.19,311.33,172.37,311.65,172.84,311.76z"/>
								<path id="XMLID_1476_" class="st36" d="M176.58,319.53l6.55,1.57c0.24,0.05,0.49,0.05,0.73-0.01l-3.74-7.77
									c-0.23,0.06-0.49,0.07-0.73,0.01l-6.55-1.57c-0.44-0.11-0.64-0.4-0.45-0.67c-0.21,0.29-0.26,0.71-0.1,0.98l3.14,6.76
									C175.6,319.11,176.11,319.42,176.58,319.53z"/>
								<path id="XMLID_1475_" class="st43" d="M183.86,321.1c0.11-0.03,0.21-0.06,0.3-0.11c0.02-0.01,0.04-0.02,0.06-0.03
									c0.05-0.03,0.1-0.06,0.13-0.1c0.02-0.02,0.05-0.04,0.06-0.07l4.7-5.63c0.24-0.29,0.3-0.75,0.14-1.03l-3.15-6.76
									c-0.15-0.26-0.59-0.55-1.03-0.68c0.39,0.13,0.52,0.42,0.3,0.69l-4.69,5.63c-0.12,0.14-0.32,0.25-0.56,0.31L183.86,321.1z"/>
							</g>
							<g>
								<path id="XMLID_1474_" class="st36" d="M168.4,296.32l6.57-2.29c0.33-0.12,0.65-0.58,0.71-1.04l0.81-6.63
									c0.06-0.46-0.17-0.74-0.5-0.62l-6.57,2.29c-0.33,0.12-0.65,0.58-0.71,1.04l-0.81,6.63
									C167.84,296.16,168.06,296.44,168.4,296.32z"/>
								<path id="XMLID_1473_" class="st43" d="M173.75,302.36l6.57-2.29c0.17-0.06,0.33-0.2,0.46-0.39l-5.35-6.04
									c-0.13,0.19-0.29,0.34-0.46,0.39l-6.57,2.29c-0.32,0.11-0.54-0.13-0.51-0.55c-0.04,0.45,0.07,0.97,0.26,1.2l4.64,5.16
									C172.98,302.37,173.41,302.47,173.75,302.36z"/>
								<path id="XMLID_1472_" class="st42" d="M180.77,299.68c0.06-0.09,0.11-0.18,0.15-0.28c0.01-0.02,0.02-0.05,0.03-0.07
									c0.02-0.06,0.04-0.12,0.05-0.18c0.01-0.04,0.01-0.07,0.02-0.11l0.81-6.64c0.06-0.46-0.06-1.03-0.25-1.27l-4.64-5.16
									c-0.18-0.23-0.56-0.33-0.88-0.25c0.29-0.05,0.47,0.22,0.42,0.64l-0.81,6.63c-0.03,0.23-0.12,0.46-0.25,0.65L180.77,299.68z"
									/>
							</g>
						</g>
					</g>
					<path class="st26" d="M160.38,307.16c0.08-0.81,0.37-1.59,0.56-2.38c0.45-1.86-0.29-3.93-0.54-5.79
						c-0.27-2.01-0.12-3.76,0.51-5.68c0.51-1.59,2.5-2.67,3.83-3.55l0.08,0.48c0,0,0.74,6.21,0.82,6.72
						c2.84,5.69,9.35,6.28,13.4,9.19c3.79,2.72,2.76,5.97,0.81,6.03c-1.95,0.06-4.98-0.45-4.98-0.45s2.31,0.36,6.57,2.99
						c4.26,2.63,3.06,5.21,1.53,5.3c-0.98,0.06-9.61-1.02-9.61-1.02s3.51,1.17,5.43,2.51c1.99,1.39,2.07,3.95-0.08,3.84
						c-1.4-0.07-8.52-1.21-11.13-2.21c-0.59-0.23-1.07-0.58-1.5-1.04c-1.38-1.45-2.55-3.08-3.65-4.75c-0.48-0.73-1.2-1.53-1.36-2.39
						c-0.16-0.91,0.06-1.83,0.04-2.74c-0.04-1.64-0.84-3.22-0.74-4.86C160.37,307.28,160.38,307.22,160.38,307.16z"/>
					<path class="st27" d="M174.87,311.71c-1.13-0.44-2.29-0.8-3.46-1.11c-1.14-0.33-2.36-0.54-3.19-1.13
						c-0.92-0.66-1.85-1.45-2.78-2.19c-0.92-0.77-1.91-1.45-2.84-2.23c0.62,1.07,1.44,1.98,2.27,2.85c0.85,0.87,1.72,1.69,2.76,2.43
						c1.18,0.77,2.45,0.87,3.63,1.05C172.45,311.55,173.65,311.65,174.87,311.71z"/>
					<path class="st27" d="M173.35,318.98c-1.07-0.34-2.15-0.61-3.22-0.85c-1.05-0.27-2.17-0.48-3-0.91c-0.36-0.17-0.68-0.6-1.04-1
						l-1.06-1.25c-0.7-0.84-1.45-1.67-2.24-2.46c0.45,1.03,0.98,2.01,1.58,2.95c0.29,0.48,0.62,0.93,0.95,1.39
						c0.35,0.42,0.68,0.94,1.31,1.3c1.15,0.56,2.26,0.68,3.37,0.8C171.12,319.05,172.23,319.05,173.35,318.98z"/>
					<path class="st27" d="M142.16,270.65c-4.74-4.33-12.45-4.06-16.05-0.59c5.96-2.96,14.82,1.01,20.01,4.51L142.16,270.65z"/>
					<path class="st27" d="M156.19,245.35l7.82-9.64c0,0,0.45,4.18-6.37,13.88L156.19,245.35z"/>
				</g>
			</g>
		</g>
	</g>
</g>
<g id="Plants">
	<g id="Plant_1_">
		<g id="Pot_1_">
			<path class="st12" d="M59.26,440.15c-9.5-9.8-15.08-34.45-5.81-42.22h47.15c9.26,7.77,3.69,32.4-5.81,42.21
				c-0.08,0.09-0.17,0.18-0.26,0.27c-0.11,0.11-0.22,0.22-0.33,0.32c-0.27,0.26-0.55,0.52-0.86,0.77c-0.08,0.06-0.15,0.12-0.23,0.18
				c-0.23,0.18-0.46,0.37-0.72,0.55c-0.41,0.29-0.81,0.56-1.23,0.79c-7.82,4.56-20.49,4.56-28.3,0l0,0l0,0
				c-0.42-0.23-0.83-0.51-1.24-0.8c-0.24-0.17-0.45-0.34-0.67-0.51c-0.09-0.07-0.19-0.14-0.28-0.22c-0.3-0.24-0.57-0.49-0.83-0.75
				c-0.13-0.12-0.25-0.25-0.38-0.37C59.41,440.3,59.33,440.23,59.26,440.15z"/>
			<path class="st7" d="M96.5,394.79c10.76,6.28,10.76,16.46,0,22.75c-10.76,6.28-28.2,6.28-38.96,0
				c-10.76-6.28-10.76-16.46,0-22.75C68.3,388.51,85.74,388.51,96.5,394.79z"/>
			<path class="st15" d="M91.33,397.81c7.9,4.61,7.9,12.09,0,16.7c-7.9,4.61-20.71,4.61-28.61,0c-7.9-4.61-7.9-12.09,0-16.7
				C70.62,393.2,83.42,393.2,91.33,397.81z"/>
			<path class="st0" d="M62.72,405.74c7.9-4.61,20.71-4.61,28.61,0c2.19,1.28,3.76,2.79,4.73,4.39c-0.98,1.6-2.54,3.11-4.73,4.39
				c-7.9,4.61-20.71,4.61-28.61,0c-2.19-1.28-3.76-2.79-4.73-4.39C58.96,408.53,60.52,407.02,62.72,405.74z"/>
		</g>
		<g id="Leaves_1_">
			<g>
				<path class="st44" d="M66.33,334.6c2.25,4.08-0.89,11.02-7.46,12.27c2.05-2.88,3.86-7.37,2.21-8c-1.65-0.63,0.26,3.58-3.41,7.46
					c0,0-1.97,0.93-4.69-1.3c4.08-2.83,5.92-8.74,4.47-7.92c-0.58,0.33-1.59,3.26-4.04,5.1c-2.45,1.84-4.88,1.94-8.49-1.14
					c2.19-0.35,5.34-1.19,7.16-3.4c1.3-1.58,1.71-2.61-1.29-0.78c-3,1.83-3.96,2.6-6.79,2.47c-2.83-0.13-5.27-3.1-5.27-3.1
					s4.63,0.48,5.7-1c1.07-1.48-3.83,0.69-7.04-0.65c-3.21-1.34-5.33-3.39-5.33-3.39s1.55-3.68,2.65-4.57
					c2.4,1.84,5.4,4.39,5.87,3.87c0.47-0.53-0.5-2.48-4.07-4.27c0,0,0.55-2.12,2.9-2.21c0,0,1.84,0.28,4.53,5.11
					c0.57,1.01,1.83,1.92-0.38-1.97c-1.84-3.23-3.48-4.29-3.48-4.29s2.9-2.09,6.07,0.63c5.23,4.49,5.42,6.7,6.19,6.38
					c0.29-0.12-0.11-1.27-2.08-4.07c-1.97-2.8-3.68-3.98-3.68-3.98s2.28-2.61,5.95-0.14c3.67,2.47,5.83,7.59,6.09,7.68
					c0.67,0.24-0.31-3.83-1.76-6.04c-1.35-2.05-2.09-2.99-2.09-2.99s3.5-1.33,6.14,2.13c2.64,3.46,2.2,8.51,3.06,8.27
					c0.86-0.24-0.65-8.27-0.65-8.27S70.99,329.63,66.33,334.6z"/>
				<path class="st14" d="M66.33,334.6c2.25,4.08-0.89,11.02-7.46,12.27c2.05-2.88,3.86-7.37,2.21-8c-1.65-0.63,0.26,3.58-3.41,7.46
					c0,0-1.97,0.93-4.69-1.3c4.08-2.83,5.92-8.74,4.47-7.92c-0.58,0.33-1.59,3.26-4.04,5.1c-2.45,1.84-4.88,1.94-8.49-1.14
					c2.19-0.35,5.34-1.19,7.16-3.4c1.3-1.58,1.71-2.61-1.29-0.78c-3,1.83-3.96,2.6-6.79,2.47c-2.83-0.13-5.27-3.1-5.27-3.1
					s4.63,0.48,5.7-1c1.07-1.48-3.83,0.69-7.04-0.65c-3.21-1.34-5.33-3.39-5.33-3.39s1.55-3.68,2.65-4.57
					c2.4,1.84,5.4,4.39,5.87,3.87c0.47-0.53-0.5-2.48-4.07-4.27c0,0,0.55-2.12,2.9-2.21c0,0,1.84,0.28,4.53,5.11
					c0.57,1.01,1.83,1.92-0.38-1.97c-1.84-3.23-3.48-4.29-3.48-4.29s2.9-2.09,6.07,0.63c5.23,4.49,5.42,6.7,6.19,6.38
					c0.29-0.12-0.11-1.27-2.08-4.07c-1.97-2.8-3.68-3.98-3.68-3.98s2.28-2.61,5.95-0.14c3.67,2.47,5.83,7.59,6.09,7.68
					c0.67,0.24-0.31-3.83-1.76-6.04c-1.35-2.05-2.09-2.99-2.09-2.99s3.5-1.33,6.14,2.13c2.64,3.46,2.2,8.51,3.06,8.27
					c0.86-0.24-0.65-8.27-0.65-8.27S70.99,329.63,66.33,334.6z"/>
			</g>
			<g>
				<path class="st7" d="M54.81,347.36c1.99-2.56,4.62-5.44,8.04-5.8c3.35-0.35,6.59,1.46,8.79,3.86c2.26,2.47,3.79,5.54,5.04,8.61
					c1.34,3.28,2.31,6.69,3.11,10.14c3.33,14.32,3.89,29.1,3.36,43.74c-0.04,1.14-0.1,2.29-0.15,3.43h1.55
					c0.03-0.59,0.07-1.18,0.09-1.76c0.33-7.67,0.37-15.36-0.07-23.02c-0.44-7.63-1.42-15.25-3.16-22.7
					c-0.85-3.65-1.88-7.27-3.32-10.73c-1.3-3.12-2.93-6.28-5.28-8.75c-2.54-2.67-6.12-4.52-9.88-3.96c-3.9,0.57-6.2,3.63-8.3,6.65
					C54.58,347.2,54.7,347.51,54.81,347.36z"/>
				<path class="st7" d="M75.96,407.57c0.26,2.35,0.47,4.71,0.65,7.07h1.72c-0.06-0.92-0.13-1.83-0.2-2.75
					c-0.64-7.98-1.74-15.91-2.92-23.82c-1.18-7.89-2.43-15.77-3.37-23.69c-0.46-3.84-0.88-7.69-1.1-11.55
					c-0.21-3.66-0.2-7.34,0.4-10.97c0.6-3.61,1.84-7.53,4.4-10.24c2.42-2.56,7.1-3.72,9.51-0.47c0.02,0.03,0.05-0.04,0.04-0.06
					c-1.51-2.76-5.39-3.43-8.08-2.14c-3.13,1.5-5.04,4.71-6.24,7.84c-2.78,7.23-2.07,15.22-1.31,22.75
					C71.05,375.63,74.21,391.51,75.96,407.57z"/>
				<path class="st7" d="M66.68,383.1c0.45,4.06,0.87,8.14,1.16,12.21c0.38,5.35,0.6,10.69,0.74,16.04h1.83
					c-0.02-0.8-0.05-1.6-0.07-2.4c-0.26-8.14-0.82-16.26-2.13-24.3c-0.37-2.28-0.87-4.53-1.34-6.79c-0.5-2.41-1-4.85-1.78-7.2
					c-0.07-0.22-0.29-0.11-0.26,0.09c0.25,2.05,0.71,4.07,1.04,6.1C66.2,378.94,66.46,381.02,66.68,383.1z"/>
			</g>
			<g>
				<path class="st44" d="M78.07,370.06c0.8-3.47,6.84-8.5,17.49-8.67c3.26-0.05,7.75,0.69,11.14,2.24
					c-6.93,0.29-16.08,1.39-16.55,3.99c-0.46,2.61,3.08,0.94,6.37-0.34c7.16-2.78,11.68-2.95,11.68-2.95s5.37,1.57,8.99,5.85
					c-7.54-2.68-16.17-1.39-19.66,0.49c-3.48,1.88-3.38,3.46-0.43,2.44c2.95-1.02,8.69-3.24,23.58-0.01c0,0,3.07,2.03,4.27,8.18
					c-2.78-2.35-6.75-3.3-10.24-4.01c-3.49-0.71-7.21-1.25-10.79-1.12c-0.64,0.02-1.92,0.11-2.25,0.79
					c-0.37,0.77,0.38,1.36,0.97,1.58c1.17,0.45,2.69,0.55,3.93,0.56c1.73,0.01,3.49,0.2,5.21,0.36c2.81,0.28,5.81,0.49,8.55,1.25
					c1.52,0.42,4.65,4.35,4.48,8.8c-3.7-0.66-11.5-5.1-16.94-4.55c-5.44,0.55,1.01,1.58,5.54,3.2c3.89,1.4,10.93,4.46,10.93,4.46
					s-0.86,7.41-1.98,11.08c-5.44,1.19-11.36,0.13-11.36,0.13s-3.65-10.55-6.34-11.52c-2.69-0.97-0.58,3.23,1.82,6.9
					c2.4,3.67,3.1,5.07,3.1,5.07s-10.98,2.06-15.48-1.58c-0.16-2.25,0.13-8.1,0.18-11.99c0.06-4.1,0.97-7.53-0.28-8.24
					c-1.19-0.68-2.44,2.57-3.17,6.59c-1.02,5.61-0.13,12.17-0.13,12.17s-7.72-1.41-10.38-3.6c-3.05-6.53,0.5-14.03,1.27-15.16
					c0.77-1.12-0.91-4.72-4.76,0.23c-4.15,5.34-2.02,10.7-2.02,10.7s-5.62-0.52-7.96-5.33C63.06,380.33,66.21,372.32,78.07,370.06z"
					/>
				<path class="st45" d="M78.07,370.06c0.8-3.47,6.84-8.5,17.49-8.67c3.26-0.05,7.75,0.69,11.14,2.24
					c-6.93,0.29-16.08,1.39-16.55,3.99c-0.46,2.61,3.08,0.94,6.37-0.34c7.16-2.78,11.68-2.95,11.68-2.95s5.37,1.57,8.99,5.85
					c-7.54-2.68-16.17-1.39-19.66,0.49c-3.48,1.88-3.38,3.46-0.43,2.44c2.95-1.02,8.69-3.24,23.58-0.01c0,0,3.07,2.03,4.27,8.18
					c-2.78-2.35-6.75-3.3-10.24-4.01c-3.49-0.71-7.21-1.25-10.79-1.12c-0.64,0.02-1.92,0.11-2.25,0.79
					c-0.37,0.77,0.38,1.36,0.97,1.58c1.17,0.45,2.69,0.55,3.93,0.56c1.73,0.01,3.49,0.2,5.21,0.36c2.81,0.28,5.81,0.49,8.55,1.25
					c1.52,0.42,4.65,4.35,4.48,8.8c-3.7-0.66-11.5-5.1-16.94-4.55c-5.44,0.55,1.01,1.58,5.54,3.2c3.89,1.4,10.93,4.46,10.93,4.46
					s-0.86,7.41-1.98,11.08c-5.44,1.19-11.36,0.13-11.36,0.13s-3.65-10.55-6.34-11.52c-2.69-0.97-0.58,3.23,1.82,6.9
					c2.4,3.67,3.1,5.07,3.1,5.07s-10.98,2.06-15.48-1.58c-0.16-2.25,0.13-8.1,0.18-11.99c0.06-4.1,0.97-7.53-0.28-8.24
					c-1.19-0.68-2.44,2.57-3.17,6.59c-1.02,5.61-0.13,12.17-0.13,12.17s-7.72-1.41-10.38-3.6c-3.05-6.53,0.5-14.03,1.27-15.16
					c0.77-1.12-0.91-4.72-4.76,0.23c-4.15,5.34-2.02,10.7-2.02,10.7s-5.62-0.52-7.96-5.33C63.06,380.33,66.21,372.32,78.07,370.06z"
					/>
			</g>
			<path class="st44" d="M56.76,344.78c5.3-0.82,12.79,0.53,16.65,4.86c3.85,4.33,4.04,9.55,2.91,12.23
				c-1.13,2.68-2.44-4.11-6.48-7.38c-4.04-3.27-5.98-3.03-2.55,0.41c3.42,3.43,7.88,9.72,8.51,13.71c0.63,3.99-3.15,8.4-4.34,8.08
				c-1.18-0.32,0.25-4.38-1.6-10.17c-1.85-5.79-5.69-9.63-8.7-10.57c-3.01-0.93-2.25,0.08,1.7,4.63c3.96,4.55,8.5,13.76,6.59,18.09
				c-1.9,4.34-6.3,5.75-7.45,5.34c-1.15-0.41,1.77-5.83-0.4-12.92c-2.17-7.09-6.89-12.12-9.46-10.61c-2.58,1.52-0.67,3.49,1.72,8.78
				c2.4,5.3,5.52,15.88,4.33,19.25c-1.19,3.37-7.53,5.57-8.45,4.51c-0.92-1.06,2.02-6.78,0.57-14.21c-1.46-7.43-4.5-10.36-4.83-7.32
				c-0.33,3.04,3.66,17.48,2.43,19.9c-1.22,2.41-12.73,6.1-12.73,6.1s-5.89-7.47-6.22-9.69c-0.33-2.22,5.05-11.16,7.99-13.7
				c2.94-2.54-0.72-2.8-3.07-1.08c-2.35,1.72-7.6,8.19-8.05,11.57c-2.96-3.46-5.58-7.83-2.92-10.64c2.66-2.8,10.6-7.42,15.24-9.03
				c4.65-1.6,8.1-6.13,1.94-4.97c-6.16,1.16-16.85,6.75-18.74,11.04c-0.72-3.87,0.36-14.68,7.1-16.42
				c6.73-1.74,13.77-1.18,15.88-1.89c2.1-0.7-0.57-2.58-5.66-2.89c-5.08-0.31-11.86-0.03-14.51,3.26c0.2-4.23,0.77-8.48,8.57-8.51
				c7.8-0.03,11.12,3.18,12.35,2.32c1.23-0.86-4.84-4.14-9.38-4.43c3.14-3.62,6.96-4.53,11.2-3.56
				C51.15,339.85,54.38,341.99,56.76,344.78z"/>
			<g>
				<path class="st44" d="M83.15,326.83c1.53-3.77,7.2-5.05,9.89-3.84c-2.91,0.7-5.37,3.02-3.74,2.32c3.42-1.48,5.56-2.13,9.5-1.32
					c3.94,0.82,4.98,4.38,4.98,4.38s-3.95-1.38-8.07-1.15c-1.31,0.07-4.77,0.6-0.52,0.63c6.7,0.04,9.19,2.47,9.19,2.47
					s2.24,2.29,2.4,4.9c-3.48-3.78-9.17-4.43-11.29-4.65c-2.12-0.22-4.04,0.86-0.56,1.14c3.48,0.28,9.82,2.74,11.73,6.24
					c1.91,3.51,0.45,8.93,0.45,8.93s-7.77-10.88-10.7-9.63c-0.07,1.64,8.2,7.19,9.58,10.27c1.38,3.07-1.76,9.38-1.76,9.38
					s-7.7-0.59-9.67-1.91c-1.98-1.32-1.16-9.72-2.2-11c-1.04-1.28-3.98,5.12-2.7,10.66c0,0-3.86,0.52-4.56-2.52
					c-0.7-3.04,0.8-9.29,2.56-12.09c1.76-2.81-1-2.24-2.46-0.1c-1.46,2.13-3.42,6.86-3.02,10.02c0,0-4.44-2.1-5.57-4.48
					c-1.13-2.38,3.1-8.64,5.22-10.2c2.12-1.56,0.26-2.87-1.86-1.31c-2.12,1.56-5.61,6.35-5.99,8.8c-2.26-4.33-2.43-9.81,1.45-13.76
					C79.55,324.82,83.15,326.83,83.15,326.83z"/>
			</g>
		</g>
	</g>
</g>
<g id="Speech_Bubble">
	<g id="Speech_Bubble_8_">
		<g id="Speech_Bubble_9_">
			<path class="st7" d="M295.42,75.13c-11.38-12.76-31.03-13.89-43.79-2.51c-11.45,10.21-13.52,27.07-5.61,39.64l-4.39,8.58
				c-0.75,1.46,0.7,3.08,2.24,2.51l9.02-3.38c11.59,9.29,28.57,9.16,40.02-1.05C305.68,107.54,306.8,87.89,295.42,75.13z
				 M291.3,117.11c-5.63,5.02-12.71,7.39-19.71,7.22l-3.26-0.27c-6.48-0.9-12.7-4.01-17.39-9.27c-10.49-11.76-9.45-29.87,2.31-40.36
				c5.26-4.69,11.79-7.07,18.34-7.22l3.27,0.11c6.98,0.63,13.74,3.79,18.76,9.42C304.11,88.51,303.07,106.62,291.3,117.11z"/>
		</g>
		<path id="Heart_4_" class="st46" d="M272.33,113.48c-20.17-10.75-21.8-22.28-15.94-27.92c5.25-5.05,14.87-1.72,15.94,5.5
			c1.07-7.22,10.68-10.55,15.94-5.5C294.13,91.21,292.5,102.74,272.33,113.48z"/>
	</g>
</g>
</svg>
